<?xml version="1.0" encoding="UTF-8" standalone="no"?>
<svg
   width="1080pt"
   height="360pt"
   viewBox="0 0 1080 360"
   version="1.1"
   id="svg1390"
   sodipodi:docname="CMeans.svg"
   inkscape:version="1.2 (dc2aeda, 2022-05-15)"
   inkscape:export-filename="CMeans.png"
   inkscape:export-xdpi="96"
   inkscape:export-ydpi="96"
   xmlns:inkscape="http://www.inkscape.org/namespaces/inkscape"
   xmlns:sodipodi="http://sodipodi.sourceforge.net/DTD/sodipodi-0.dtd"
   xmlns:xlink="http://www.w3.org/1999/xlink"
   xmlns="http://www.w3.org/2000/svg"
   xmlns:svg="http://www.w3.org/2000/svg"
   xmlns:rdf="http://www.w3.org/1999/02/22-rdf-syntax-ns#"
   xmlns:cc="http://creativecommons.org/ns#"
   xmlns:dc="http://purl.org/dc/elements/1.1/">
  <sodipodi:namedview
     id="namedview1392"
     pagecolor="#ffffff"
     bordercolor="#000000"
     borderopacity="0.25"
     inkscape:showpageshadow="2"
     inkscape:pageopacity="0.0"
     inkscape:pagecheckerboard="0"
     inkscape:deskcolor="#d1d1d1"
     inkscape:document-units="pt"
     showgrid="false"
     inkscape:zoom="0.60602043"
     inkscape:cx="698.82133"
     inkscape:cy="155.11028"
     inkscape:window-width="1728"
     inkscape:window-height="996"
     inkscape:window-x="0"
     inkscape:window-y="38"
     inkscape:window-maximized="1"
     inkscape:current-layer="svg1390" />
  <metadata
     id="metadata950">
    <rdf:RDF>
      <cc:Work>
        <dc:type
           rdf:resource="http://purl.org/dc/dcmitype/StillImage" />
        <dc:date>2022-06-19T15:41:42.911698</dc:date>
        <dc:format>image/svg+xml</dc:format>
        <dc:creator>
          <cc:Agent>
            <dc:title>Matplotlib v3.5.1, https://matplotlib.org/</dc:title>
          </cc:Agent>
        </dc:creator>
      </cc:Work>
    </rdf:RDF>
  </metadata>
  <defs
     id="defs954">
    <style
       type="text/css"
       id="style952">*{stroke-linejoin: round; stroke-linecap: butt}</style>
    <defs
       id="defs1366">
      <path
         id="DejaVuSans-43"
         d="m 4122,4306 v -665 q -319,297 -680,443 -361,147 -767,147 -800,0 -1225,-489 -425,-489 -425,-1414 0,-922 425,-1411 425,-489 1225,-489 406,0 767,147 361,147 680,444 V 359 Q 3791,134 3420,21 3050,-91 2638,-91 1578,-91 968,557 359,1206 359,2328 q 0,1125 609,1773 610,649 1670,649 418,0 788,-111 371,-111 696,-333 z"
         transform="scale(0.015625)" />
      <path
         id="DejaVuSans-4d"
         d="m 628,4666 h 941 L 2759,1491 3956,4666 h 941 V 0 H 4281 V 4097 L 3078,897 H 2444 L 1241,4097 V 0 H 628 Z"
         transform="scale(0.015625)" />
      <path
         id="DejaVuSans-65"
         d="M 3597,1894 V 1613 H 953 q 38,-594 358,-905 320,-311 892,-311 331,0 642,81 311,81 618,244 V 178 Q 3153,47 2828,-22 2503,-91 2169,-91 1331,-91 842,396 353,884 353,1716 q 0,859 464,1363 464,505 1252,505 706,0 1117,-455 411,-454 411,-1235 z m -575,169 q -6,471 -264,752 -258,282 -683,282 -481,0 -770,-272 -289,-272 -333,-766 z"
         transform="scale(0.015625)" />
      <path
         id="DejaVuSans-61"
         d="m 2194,1759 q -697,0 -966,-159 -269,-159 -269,-544 0,-306 202,-486 202,-179 548,-179 479,0 768,339 289,339 289,901 v 128 z m 1147,238 V 0 H 2766 V 531 Q 2569,213 2275,61 1981,-91 1556,-91 q -537,0 -855,302 -317,302 -317,808 0,590 395,890 396,300 1180,300 h 807 v 57 q 0,397 -261,614 -261,217 -733,217 -300,0 -585,-72 -284,-72 -546,-216 v 532 q 315,122 612,182 297,61 578,61 760,0 1135,-394 375,-393 375,-1193 z"
         transform="scale(0.015625)" />
      <path
         id="DejaVuSans-6e"
         d="M 3513,2113 V 0 h -575 v 2094 q 0,497 -194,743 -194,247 -581,247 -466,0 -735,-297 -269,-296 -269,-809 V 0 H 581 v 3500 h 578 v -544 q 207,316 486,472 280,156 646,156 603,0 912,-373 310,-373 310,-1098 z"
         transform="scale(0.015625)" />
      <path
         id="DejaVuSans-73"
         d="m 2834,3397 v -544 q -243,125 -506,187 -262,63 -544,63 -428,0 -642,-131 -214,-131 -214,-394 0,-200 153,-314 153,-114 616,-217 l 197,-44 q 612,-131 870,-370 258,-239 258,-667 0,-488 -386,-773 Q 2250,-91 1575,-91 1294,-91 989,-36 684,19 347,128 v 594 q 319,-166 628,-249 309,-82 613,-82 406,0 624,139 219,139 219,392 0,234 -158,359 -157,125 -692,241 l -200,47 q -534,112 -772,345 -237,233 -237,639 0,494 350,762 350,269 994,269 318,0 599,-47 282,-46 519,-140 z"
         transform="scale(0.015625)" />
    </defs>
    <defs
       id="defs963">
      <path
         id="mab969d5740"
         d="M 0,0 V 3.5"
         style="stroke:#000000;stroke-width:0.8" />
    </defs>
    <defs
       id="defs1228">
      <path
         id="mb3f6d0eea5"
         d="M 0,0 H -3.5"
         style="stroke:#000000;stroke-width:0.8" />
    </defs>
    <defs
       id="defs988">
      <path
         id="DejaVuSans-41"
         d="M 2188,4044 1331,1722 h 1716 z m -357,622 h 716 L 4325,0 H 3669 L 3244,1197 H 1141 L 716,0 H 50 Z"
         transform="scale(0.015625)" />
      <path
         id="DejaVuSans-31"
         d="M 794,531 H 1825 V 4091 L 703,3866 v 575 l 1116,225 h 631 V 531 H 3481 V 0 H 794 Z"
         transform="scale(0.015625)" />
    </defs>
    <defs
       id="defs974">
      <path
         id="DejaVuSans-36"
         d="m 2113,2584 q -425,0 -674,-291 -248,-290 -248,-796 0,-503 248,-796 249,-292 674,-292 425,0 673,292 248,293 248,796 0,506 -248,796 -248,291 -673,291 z m 1253,1979 v -575 q -238,112 -480,171 -242,60 -480,60 -625,0 -955,-422 -329,-422 -376,-1275 184,272 462,417 279,145 613,145 703,0 1111,-427 408,-426 408,-1160 0,-719 -425,-1154 -425,-434 -1131,-434 -810,0 -1238,620 -428,621 -428,1799 0,1106 525,1764 525,658 1409,658 238,0 480,-47 242,-47 505,-140 z"
         transform="scale(0.015625)" />
      <path
         id="DejaVuSans-37"
         d="M 525,4666 H 3525 V 4397 L 1831,0 H 1172 L 2766,4134 H 525 Z"
         transform="scale(0.015625)" />
      <path
         id="DejaVuSans-2e"
         d="m 684,794 h 660 V 0 H 684 Z"
         transform="scale(0.015625)" />
      <path
         id="DejaVuSans-30"
         d="m 2034,4250 q -487,0 -733,-480 -245,-479 -245,-1442 0,-959 245,-1439 246,-480 733,-480 491,0 736,480 246,480 246,1439 0,963 -246,1442 -245,480 -736,480 z m 0,500 q 785,0 1199,-621 414,-620 414,-1801 0,-1178 -414,-1799 -414,-620 -1199,-620 -784,0 -1198,620 -414,621 -414,1799 0,1181 414,1801 414,621 1198,621 z"
         transform="scale(0.015625)" />
    </defs>
    <defs
       id="defs1081">
      <path
         id="DejaVuSans-34"
         d="M 2419,4116 825,1625 h 1594 z m -166,550 h 794 V 1625 h 666 V 1100 H 3047 V 0 H 2419 V 1100 H 313 v 609 z"
         transform="scale(0.015625)" />
    </defs>
    <defs
       id="defs1004">
      <path
         id="DejaVuSans-35"
         d="M 691,4666 H 3169 V 4134 H 1269 V 2991 q 137,47 274,70 138,23 276,23 781,0 1237,-428 457,-428 457,-1159 Q 3513,744 3044,326 2575,-91 1722,-91 1428,-91 1123,-41 819,9 494,109 v 635 q 281,-153 581,-228 300,-75 634,-75 541,0 856,284 316,284 316,772 0,487 -316,771 -315,285 -856,285 -253,0 -505,-56 -251,-56 -513,-175 z"
         transform="scale(0.015625)" />
    </defs>
    <defs
       id="defs1051">
      <path
         id="DejaVuSans-33"
         d="m 2597,2516 q 453,-97 707,-404 255,-306 255,-756 0,-690 -475,-1069 -475,-378 -1350,-378 -293,0 -604,58 -311,58 -642,174 v 609 q 262,-153 574,-231 313,-78 654,-78 593,0 904,234 311,234 311,681 0,413 -289,645 -289,233 -804,233 h -544 v 519 h 569 q 465,0 712,186 247,186 247,536 0,359 -255,551 -254,193 -729,193 -260,0 -557,-57 -297,-56 -653,-174 v 562 q 360,100 674,150 314,50 592,50 719,0 1137,-327 419,-326 419,-882 0,-388 -222,-655 -222,-267 -631,-370 z"
         transform="scale(0.015625)" />
    </defs>
    <defs
       id="defs1036">
      <path
         id="DejaVuSans-38"
         d="m 2034,2216 q -450,0 -708,-241 -257,-241 -257,-662 0,-422 257,-663 258,-241 708,-241 450,0 709,242 260,243 260,662 0,421 -258,662 -257,241 -711,241 z m -631,268 q -406,100 -633,378 -226,279 -226,679 0,559 398,884 399,325 1092,325 697,0 1094,-325 397,-325 397,-884 0,-400 -227,-679 -226,-278 -629,-378 456,-106 710,-416 255,-309 255,-755 Q 3634,634 3220,271 2806,-91 2034,-91 1263,-91 848,271 434,634 434,1313 q 0,446 256,755 257,310 713,416 z m -231,997 q 0,-362 226,-565 227,-203 636,-203 407,0 636,203 230,203 230,565 0,363 -230,566 -229,203 -636,203 -409,0 -636,-203 -226,-203 -226,-566 z"
         transform="scale(0.015625)" />
      <path
         id="DejaVuSans-39"
         d="m 703,97 v 575 q 238,-113 481,-172 244,-59 479,-59 625,0 954,420 330,420 377,1277 -181,-269 -460,-413 -278,-144 -615,-144 -700,0 -1108,423 -408,424 -408,1159 0,718 425,1152 425,435 1131,435 810,0 1236,-621 427,-620 427,-1801 Q 3622,1225 3098,567 2575,-91 1691,-91 1453,-91 1209,-44 966,3 703,97 Z m 1256,1978 q 425,0 673,290 249,291 249,798 0,503 -249,795 -248,292 -673,292 -425,0 -673,-292 -248,-292 -248,-795 0,-507 248,-798 248,-290 673,-290 z"
         transform="scale(0.015625)" />
    </defs>
    <defs
       id="defs1019">
      <path
         id="DejaVuSans-32"
         d="M 1228,531 H 3431 V 0 H 469 v 531 q 359,372 979,998 621,627 780,809 303,340 423,576 121,236 121,464 0,372 -261,606 -261,235 -680,235 -297,0 -627,-103 -329,-103 -704,-313 v 638 q 381,153 712,231 332,78 607,78 725,0 1156,-363 431,-362 431,-968 0,-288 -108,-546 -107,-257 -392,-607 -78,-91 -497,-524 Q 1991,1309 1228,531 Z"
         transform="scale(0.015625)" />
    </defs>
    <clipPath
       id="p61af47bf29-4">
      <rect
         x="135"
         y="43.200001"
         width="837"
         height="271.79999"
         id="rect1385-7" />
    </clipPath>
  </defs>
  <path
     d="M 0,360 H 1080 V 0 H 0 Z"
     style="fill:none"
     id="path956" />
  <use
     xlink:href="#mab969d5740"
     x="143.22163"
     y="315"
     style="stroke:#000000;stroke-width:0.8"
     id="use965" />
  <use
     xlink:href="#DejaVuSans-36"
     id="use976"
     transform="matrix(0.1,0,0,-0.1,141.08883,329.59844)" />
  <use
     xlink:href="#DejaVuSans-37"
     x="63.623047"
     id="use978"
     transform="matrix(0.1,0,0,-0.1,141.08883,329.59844)" />
  <use
     xlink:href="#DejaVuSans-2e"
     x="127.24609"
     id="use980"
     transform="matrix(0.1,0,0,-0.1,141.08883,329.59844)" />
  <use
     xlink:href="#DejaVuSans-30"
     x="159.0332"
     id="use982"
     transform="matrix(0.1,0,0,-0.1,141.08883,329.59844)" />
  <use
     xlink:href="#DejaVuSans-41"
     id="use990"
     transform="matrix(0.1,0,0,-0.1,145.62008,340.79625)" />
  <use
     xlink:href="#DejaVuSans-31"
     x="68.408203"
     id="use992"
     transform="matrix(0.1,0,0,-0.1,145.62008,340.79625)" />
  <use
     xlink:href="#DejaVuSans-2e"
     x="127.24609"
     id="use980-7"
     transform="matrix(0.1,0,0,-0.1,113.64077,330.23149)"
     style="stroke-linecap:butt;stroke-linejoin:round" />
  <use
     xlink:href="#DejaVuSans-30"
     x="159.0332"
     id="use982-0"
     transform="matrix(0.1,0,0,-0.1,113.64077,330.23149)"
     style="stroke-linecap:butt;stroke-linejoin:round" />
  <use
     xlink:href="#DejaVuSans-30"
     x="159.0332"
     id="use982-0-0"
     transform="matrix(0.1,0,0,-0.1,112.73117,340.79725)"
     style="stroke-linecap:butt;stroke-linejoin:round" />
  <use
     xlink:href="#DejaVuSans-30"
     x="159.0332"
     id="use982-0-6"
     transform="matrix(0.1,0,0,-0.1,104.58135,329.92934)"
     style="stroke-linecap:butt;stroke-linejoin:round" />
  <use
     xlink:href="#DejaVuSans-41"
     id="use990-3"
     transform="matrix(0.1,0,0,-0.1,121.84811,340.98817)"
     style="stroke-linecap:butt;stroke-linejoin:round" />
  <use
     xlink:href="#mab969d5740"
     x="196.79408"
     y="315"
     style="stroke:#000000;stroke-width:0.8"
     id="use998" />
  <use
     xlink:href="#DejaVuSans-35"
     id="use1006"
     transform="matrix(0.1,0,0,-0.1,182.48002,329.59844)" />
  <use
     xlink:href="#DejaVuSans-30"
     x="63.623047"
     id="use1008"
     transform="matrix(0.1,0,0,-0.1,182.48002,329.59844)" />
  <use
     xlink:href="#DejaVuSans-31"
     x="127.24609"
     id="use1010"
     transform="matrix(0.1,0,0,-0.1,182.48002,329.59844)" />
  <use
     xlink:href="#DejaVuSans-2e"
     x="190.86914"
     id="use1012"
     transform="matrix(0.1,0,0,-0.1,182.48002,329.59844)" />
  <use
     xlink:href="#DejaVuSans-30"
     x="222.65625"
     id="use1014"
     transform="matrix(0.1,0,0,-0.1,182.48002,329.59844)" />
  <use
     xlink:href="#DejaVuSans-41"
     id="use1021"
     transform="matrix(0.1,0,0,-0.1,190.19252,340.79625)" />
  <use
     xlink:href="#DejaVuSans-32"
     x="68.408203"
     id="use1023"
     transform="matrix(0.1,0,0,-0.1,190.19252,340.79625)" />
  <use
     xlink:href="#mab969d5740"
     x="245.73941"
     y="315"
     style="stroke:#000000;stroke-width:0.8"
     id="use1029" />
  <use
     xlink:href="#DejaVuSans-38"
     id="use1038"
     transform="matrix(0.1,0,0,-0.1,231.42534,329.59844)" />
  <use
     xlink:href="#DejaVuSans-39"
     x="63.623047"
     id="use1040"
     transform="matrix(0.1,0,0,-0.1,231.42534,329.59844)" />
  <use
     xlink:href="#DejaVuSans-38"
     x="127.24609"
     id="use1042"
     transform="matrix(0.1,0,0,-0.1,231.42534,329.59844)" />
  <use
     xlink:href="#DejaVuSans-2e"
     x="190.86914"
     id="use1044"
     transform="matrix(0.1,0,0,-0.1,231.42534,329.59844)" />
  <use
     xlink:href="#DejaVuSans-30"
     x="222.65625"
     id="use1046"
     transform="matrix(0.1,0,0,-0.1,231.42534,329.59844)" />
  <use
     xlink:href="#DejaVuSans-41"
     id="use1053"
     transform="matrix(0.1,0,0,-0.1,239.13784,340.79625)" />
  <use
     xlink:href="#DejaVuSans-33"
     x="68.408203"
     id="use1055"
     transform="matrix(0.1,0,0,-0.1,239.13784,340.79625)" />
  <use
     xlink:href="#mab969d5740"
     x="304.38107"
     y="315"
     style="stroke:#000000;stroke-width:0.8"
     id="use1061" />
  <use
     xlink:href="#DejaVuSans-31"
     id="use1066"
     transform="matrix(0.1,0,0,-0.1,286.88576,329.59844)" />
  <use
     xlink:href="#DejaVuSans-33"
     x="63.623047"
     id="use1068"
     transform="matrix(0.1,0,0,-0.1,286.88576,329.59844)" />
  <use
     xlink:href="#DejaVuSans-37"
     x="127.24609"
     id="use1070"
     transform="matrix(0.1,0,0,-0.1,286.88576,329.59844)" />
  <use
     xlink:href="#DejaVuSans-33"
     x="190.86914"
     id="use1072"
     transform="matrix(0.1,0,0,-0.1,286.88576,329.59844)" />
  <use
     xlink:href="#DejaVuSans-2e"
     x="254.49219"
     id="use1074"
     transform="matrix(0.1,0,0,-0.1,286.88576,329.59844)" />
  <use
     xlink:href="#DejaVuSans-30"
     x="286.2793"
     id="use1076"
     transform="matrix(0.1,0,0,-0.1,286.88576,329.59844)" />
  <use
     xlink:href="#DejaVuSans-41"
     id="use1083"
     transform="matrix(0.1,0,0,-0.1,297.77951,340.79625)" />
  <use
     xlink:href="#DejaVuSans-34"
     x="68.408203"
     id="use1085"
     transform="matrix(0.1,0,0,-0.1,297.77951,340.79625)" />
  <use
     xlink:href="#mab969d5740"
     x="376.41907"
     y="315"
     style="stroke:#000000;stroke-width:0.8"
     id="use1091" />
  <use
     xlink:href="#DejaVuSans-31"
     id="use1096"
     transform="matrix(0.1,0,0,-0.1,358.92375,329.59844)" />
  <use
     xlink:href="#DejaVuSans-39"
     x="63.623047"
     id="use1098"
     transform="matrix(0.1,0,0,-0.1,358.92375,329.59844)" />
  <use
     xlink:href="#DejaVuSans-35"
     x="127.24609"
     id="use1100"
     transform="matrix(0.1,0,0,-0.1,358.92375,329.59844)" />
  <use
     xlink:href="#DejaVuSans-38"
     x="190.86914"
     id="use1102"
     transform="matrix(0.1,0,0,-0.1,358.92375,329.59844)" />
  <use
     xlink:href="#DejaVuSans-2e"
     x="254.49219"
     id="use1104"
     transform="matrix(0.1,0,0,-0.1,358.92375,329.59844)" />
  <use
     xlink:href="#DejaVuSans-30"
     x="286.2793"
     id="use1106"
     transform="matrix(0.1,0,0,-0.1,358.92375,329.59844)" />
  <use
     xlink:href="#DejaVuSans-41"
     id="use1110"
     transform="matrix(0.1,0,0,-0.1,369.8175,340.79625)" />
  <use
     xlink:href="#DejaVuSans-35"
     x="68.408203"
     id="use1112"
     transform="matrix(0.1,0,0,-0.1,369.8175,340.79625)" />
  <use
     xlink:href="#mab969d5740"
     x="422.37811"
     y="315"
     style="stroke:#000000;stroke-width:0.8"
     id="use1118" />
  <use
     xlink:href="#DejaVuSans-32"
     id="use1123"
     transform="matrix(0.1,0,0,-0.1,404.88279,329.59844)" />
  <use
     xlink:href="#DejaVuSans-33"
     x="63.623047"
     id="use1125"
     transform="matrix(0.1,0,0,-0.1,404.88279,329.59844)" />
  <use
     xlink:href="#DejaVuSans-33"
     x="127.24609"
     id="use1127"
     transform="matrix(0.1,0,0,-0.1,404.88279,329.59844)" />
  <use
     xlink:href="#DejaVuSans-30"
     x="190.86914"
     id="use1129"
     transform="matrix(0.1,0,0,-0.1,404.88279,329.59844)" />
  <use
     xlink:href="#DejaVuSans-2e"
     x="254.49219"
     id="use1131"
     transform="matrix(0.1,0,0,-0.1,404.88279,329.59844)" />
  <use
     xlink:href="#DejaVuSans-30"
     x="286.2793"
     id="use1133"
     transform="matrix(0.1,0,0,-0.1,404.88279,329.59844)" />
  <use
     xlink:href="#DejaVuSans-41"
     id="use1137"
     transform="matrix(0.1,0,0,-0.1,415.77654,340.79625)" />
  <use
     xlink:href="#DejaVuSans-36"
     x="68.408203"
     id="use1139"
     transform="matrix(0.1,0,0,-0.1,415.77654,340.79625)" />
  <use
     xlink:href="#mab969d5740"
     x="470.77933"
     y="315"
     style="stroke:#000000;stroke-width:0.8"
     id="use1145" />
  <use
     xlink:href="#DejaVuSans-32"
     id="use1150"
     transform="matrix(0.1,0,0,-0.1,453.284,329.59844)" />
  <use
     xlink:href="#DejaVuSans-37"
     x="63.623047"
     id="use1152"
     transform="matrix(0.1,0,0,-0.1,453.284,329.59844)" />
  <use
     xlink:href="#DejaVuSans-32"
     x="127.24609"
     id="use1154"
     transform="matrix(0.1,0,0,-0.1,453.284,329.59844)" />
  <use
     xlink:href="#DejaVuSans-33"
     x="190.86914"
     id="use1156"
     transform="matrix(0.1,0,0,-0.1,453.284,329.59844)" />
  <use
     xlink:href="#DejaVuSans-2e"
     x="254.49219"
     id="use1158"
     transform="matrix(0.1,0,0,-0.1,453.284,329.59844)" />
  <use
     xlink:href="#DejaVuSans-30"
     x="286.2793"
     id="use1160"
     transform="matrix(0.1,0,0,-0.1,453.284,329.59844)" />
  <use
     xlink:href="#DejaVuSans-41"
     id="use1164"
     transform="matrix(0.1,0,0,-0.1,464.17775,340.79625)" />
  <use
     xlink:href="#DejaVuSans-37"
     x="68.408203"
     id="use1166"
     transform="matrix(0.1,0,0,-0.1,464.17775,340.79625)" />
  <use
     xlink:href="#mab969d5740"
     x="567.62823"
     y="315"
     style="stroke:#000000;stroke-width:0.8"
     id="use1172" />
  <use
     xlink:href="#DejaVuSans-33"
     id="use1177"
     transform="matrix(0.1,0,0,-0.1,550.13293,329.59844)" />
  <use
     xlink:href="#DejaVuSans-35"
     x="63.623047"
     id="use1179"
     transform="matrix(0.1,0,0,-0.1,550.13293,329.59844)" />
  <use
     xlink:href="#DejaVuSans-30"
     x="127.24609"
     id="use1181"
     transform="matrix(0.1,0,0,-0.1,550.13293,329.59844)" />
  <use
     xlink:href="#DejaVuSans-38"
     x="190.86914"
     id="use1183"
     transform="matrix(0.1,0,0,-0.1,550.13293,329.59844)" />
  <use
     xlink:href="#DejaVuSans-2e"
     x="254.49219"
     id="use1185"
     transform="matrix(0.1,0,0,-0.1,550.13293,329.59844)" />
  <use
     xlink:href="#DejaVuSans-30"
     x="286.2793"
     id="use1187"
     transform="matrix(0.1,0,0,-0.1,550.13293,329.59844)" />
  <use
     xlink:href="#DejaVuSans-41"
     id="use1191"
     transform="matrix(0.1,0,0,-0.1,561.02668,340.79625)" />
  <use
     xlink:href="#DejaVuSans-38"
     x="68.408203"
     id="use1193"
     transform="matrix(0.1,0,0,-0.1,561.02668,340.79625)" />
  <use
     xlink:href="#mab969d5740"
     x="784.53516"
     y="315"
     style="stroke:#000000;stroke-width:0.8"
     id="use1199" />
  <use
     xlink:href="#DejaVuSans-37"
     x="63.623047"
     id="use776-2"
     transform="matrix(0.1,0,0,-0.1,772.93761,325.40294)"
     style="stroke-linecap:butt;stroke-linejoin:round" />
  <use
     xlink:href="#DejaVuSans-36"
     id="use831"
     transform="matrix(0.1,0,0,-0.1,766.66435,325.39747)"
     style="stroke-linecap:butt;stroke-linejoin:round" />
  <use
     xlink:href="#DejaVuSans-31"
     x="63.623047"
     id="use833"
     transform="matrix(0.1,0,0,-0.1,766.66435,325.40294)"
     style="stroke-linecap:butt;stroke-linejoin:round" />
  <use
     xlink:href="#DejaVuSans-2e"
     x="254.49219"
     id="use839"
     transform="matrix(0.1,0,0,-0.1,766.66435,325.37794)"
     style="stroke-linecap:butt;stroke-linejoin:round" />
  <use
     xlink:href="#DejaVuSans-30"
     x="286.2793"
     id="use841"
     transform="matrix(0.1,0,0,-0.1,766.66435,325.39747)"
     style="stroke-linecap:butt;stroke-linejoin:round" />
  <use
     xlink:href="#DejaVuSans-30"
     x="286.2793"
     id="use841-2"
     transform="matrix(0.1,0,0,-0.1,756.84546,325.39747)"
     style="stroke-linecap:butt;stroke-linejoin:round" />
  <use
     xlink:href="#DejaVuSans-41"
     id="use845"
     transform="matrix(0.1,0,0,-0.1,777.55811,336.68895)"
     style="stroke-linecap:butt;stroke-linejoin:round" />
  <use
     xlink:href="#DejaVuSans-39"
     x="68.408203"
     id="use847"
     transform="matrix(0.1,0,0,-0.1,777.55811,336.68895)"
     style="stroke-linecap:butt;stroke-linejoin:round" />
  <use
     xlink:href="#mb3f6d0eea5"
     x="135"
     y="315"
     style="stroke:#000000;stroke-width:0.8"
     id="use1230" />
  <use
     xlink:href="#DejaVuSans-30"
     id="use1235"
     transform="matrix(0.1,0,0,-0.1,112.09687,318.79922)" />
  <use
     xlink:href="#DejaVuSans-2e"
     x="63.623047"
     id="use1237"
     transform="matrix(0.1,0,0,-0.1,112.09687,318.79922)" />
  <use
     xlink:href="#DejaVuSans-30"
     x="95.410156"
     id="use1239"
     transform="matrix(0.1,0,0,-0.1,112.09687,318.79922)" />
  <use
     xlink:href="#mb3f6d0eea5"
     x="135"
     y="265.58182"
     style="stroke:#000000;stroke-width:0.8"
     id="use1245" />
  <use
     xlink:href="#DejaVuSans-30"
     id="use1250"
     transform="matrix(0.1,0,0,-0.1,112.09687,269.38104)" />
  <use
     xlink:href="#DejaVuSans-2e"
     x="63.623047"
     id="use1252"
     transform="matrix(0.1,0,0,-0.1,112.09687,269.38104)" />
  <use
     xlink:href="#DejaVuSans-32"
     x="95.410156"
     id="use1254"
     transform="matrix(0.1,0,0,-0.1,112.09687,269.38104)" />
  <use
     xlink:href="#mb3f6d0eea5"
     x="135"
     y="216.16364"
     style="stroke:#000000;stroke-width:0.8"
     id="use1260" />
  <use
     xlink:href="#DejaVuSans-30"
     id="use1265"
     transform="matrix(0.1,0,0,-0.1,112.09687,219.96285)" />
  <use
     xlink:href="#DejaVuSans-2e"
     x="63.623047"
     id="use1267"
     transform="matrix(0.1,0,0,-0.1,112.09687,219.96285)" />
  <use
     xlink:href="#DejaVuSans-34"
     x="95.410156"
     id="use1269"
     transform="matrix(0.1,0,0,-0.1,112.09687,219.96285)" />
  <use
     xlink:href="#mb3f6d0eea5"
     x="135"
     y="166.74545"
     style="stroke:#000000;stroke-width:0.8"
     id="use1275" />
  <use
     xlink:href="#DejaVuSans-30"
     id="use1280"
     transform="matrix(0.1,0,0,-0.1,112.09687,170.54467)" />
  <use
     xlink:href="#DejaVuSans-2e"
     x="63.623047"
     id="use1282"
     transform="matrix(0.1,0,0,-0.1,112.09687,170.54467)" />
  <use
     xlink:href="#DejaVuSans-36"
     x="95.410156"
     id="use1284"
     transform="matrix(0.1,0,0,-0.1,112.09687,170.54467)" />
  <use
     xlink:href="#mb3f6d0eea5"
     x="135"
     y="117.32727"
     style="stroke:#000000;stroke-width:0.8"
     id="use1290" />
  <use
     xlink:href="#DejaVuSans-30"
     id="use1295"
     transform="matrix(0.1,0,0,-0.1,112.09687,121.12649)" />
  <use
     xlink:href="#DejaVuSans-2e"
     x="63.623047"
     id="use1297"
     transform="matrix(0.1,0,0,-0.1,112.09687,121.12649)" />
  <use
     xlink:href="#DejaVuSans-38"
     x="95.410156"
     id="use1299"
     transform="matrix(0.1,0,0,-0.1,112.09687,121.12649)" />
  <use
     xlink:href="#mb3f6d0eea5"
     x="135"
     y="67.909088"
     style="stroke:#000000;stroke-width:0.8"
     id="use1305" />
  <use
     xlink:href="#DejaVuSans-31"
     id="use1310"
     transform="matrix(0.1,0,0,-0.1,112.09687,71.70831)" />
  <use
     xlink:href="#DejaVuSans-2e"
     x="63.623047"
     id="use1312"
     transform="matrix(0.1,0,0,-0.1,112.09687,71.70831)" />
  <use
     xlink:href="#DejaVuSans-30"
     x="95.410156"
     id="use1314"
     transform="matrix(0.1,0,0,-0.1,112.09687,71.70831)" />
  <path
     d="M 135,315 143.22164,67.909091 196.79408,315"
     clip-path="url(#p61af47bf29)"
     style="fill:none;stroke:#1f77b4;stroke-width:1.5;stroke-linecap:square"
     id="path1321"
     transform="matrix(0.99372001,0,0,1.0000105,1.2443056,-0.0019958)" />
  <path
     d="M 143.22164,315 196.79408,67.909091 245.7394,315"
     clip-path="url(#p61af47bf29)"
     style="fill:none;stroke:#ff7f0e;stroke-width:1.5;stroke-linecap:square"
     id="path1324" />
  <path
     d="M 196.79408,315 245.7394,67.909091 304.38108,315"
     clip-path="url(#p61af47bf29)"
     style="fill:none;stroke:#2ca02c;stroke-width:1.5;stroke-linecap:square"
     id="path1327" />
  <path
     d="M 245.7394,315 304.38108,67.909091 376.41907,315"
     clip-path="url(#p61af47bf29)"
     style="fill:none;stroke:#d62728;stroke-width:1.5;stroke-linecap:square"
     id="path1330" />
  <path
     d="M 304.38108,315 376.41907,67.909091 422.3781,315"
     clip-path="url(#p61af47bf29)"
     style="fill:none;stroke:#9467bd;stroke-width:1.5;stroke-linecap:square"
     id="path1333" />
  <path
     d="M 376.41907,315 422.3781,67.909091 470.77932,315"
     clip-path="url(#p61af47bf29)"
     style="fill:none;stroke:#8c564b;stroke-width:1.5;stroke-linecap:square"
     id="path1336" />
  <path
     d="M 422.3781,315 470.77932,67.909091 567.62824,315"
     clip-path="url(#p61af47bf29)"
     style="fill:none;stroke:#e377c2;stroke-width:1.5;stroke-linecap:square"
     id="path1339" />
  <path
     d="M 422.3781,315 421.78862,69.723561 429.7285,313.96132"
     clip-path="url(#p61af47bf29-4)"
     style="fill:none;stroke:#e377c2;stroke-width:1.5;stroke-linecap:square;stroke-linejoin:round"
     id="path1339-1"
     transform="translate(-286.38498,0.3469827)"
     sodipodi:nodetypes="ccc" />
  <path
     d="M 470.77932,315 567.62824,67.909091 784.53518,315"
     clip-path="url(#p61af47bf29)"
     style="fill:none;stroke:#7f7f7f;stroke-width:1.5;stroke-linecap:square"
     id="path1342" />
  <path
     d="M 567.62824,315 784.53518,67.909091 784.48767,318.0002"
     clip-path="url(#p61af47bf29)"
     style="fill:none;stroke:#bcbd22;stroke-width:1.5;stroke-linecap:square"
     id="path1345"
     sodipodi:nodetypes="ccc" />
  <path
     d="M 135,315 V 43.2"
     style="fill:none;stroke:#000000;stroke-width:0.8;stroke-linecap:square;stroke-linejoin:miter"
     id="path1348" />
  <path
     d="M 972,315 V 43.2"
     style="fill:none;stroke:#000000;stroke-width:0.8;stroke-linecap:square;stroke-linejoin:miter"
     id="path1351" />
  <path
     d="M 135,315 H 972"
     style="fill:none;stroke:#000000;stroke-width:0.8;stroke-linecap:square;stroke-linejoin:miter"
     id="path1354" />
  <path
     d="M 135,43.2 H 972"
     style="fill:none;stroke:#000000;stroke-width:0.8;stroke-linecap:square;stroke-linejoin:miter"
     id="path1357" />
  <use
     xlink:href="#DejaVuSans-43"
     id="use1368"
     transform="matrix(0.12,0,0,-0.12,529.83656,37.2)" />
  <use
     xlink:href="#DejaVuSans-4d"
     x="69.824219"
     id="use1370"
     transform="matrix(0.12,0,0,-0.12,529.83656,37.2)" />
  <use
     xlink:href="#DejaVuSans-65"
     x="156.10352"
     id="use1372"
     transform="matrix(0.12,0,0,-0.12,529.83656,37.2)" />
  <use
     xlink:href="#DejaVuSans-61"
     x="217.62695"
     id="use1374"
     transform="matrix(0.12,0,0,-0.12,529.83656,37.2)" />
  <use
     xlink:href="#DejaVuSans-6e"
     x="278.90625"
     id="use1376"
     transform="matrix(0.12,0,0,-0.12,529.83656,37.2)" />
  <use
     xlink:href="#DejaVuSans-73"
     x="342.28516"
     id="use1378"
     transform="matrix(0.12,0,0,-0.12,529.83656,37.2)" />
  <defs
     id="defs1388">
    <clipPath
       id="p61af47bf29">
      <rect
         x="135"
         y="43.2"
         width="837"
         height="271.8"
         id="rect1385" />
    </clipPath>
  </defs>
</svg>
