<?xml version="1.0" encoding="UTF-8" standalone="no"?>
<svg
   width="1080pt"
   height="360pt"
   viewBox="0 0 1080 360"
   version="1.1"
   id="svg3984"
   sodipodi:docname="FCM.svg"
   inkscape:version="1.2 (dc2aeda, 2022-05-15)"
   inkscape:export-filename="FCM.png"
   inkscape:export-xdpi="96"
   inkscape:export-ydpi="96"
   xmlns:inkscape="http://www.inkscape.org/namespaces/inkscape"
   xmlns:sodipodi="http://sodipodi.sourceforge.net/DTD/sodipodi-0.dtd"
   xmlns:xlink="http://www.w3.org/1999/xlink"
   xmlns="http://www.w3.org/2000/svg"
   xmlns:svg="http://www.w3.org/2000/svg"
   xmlns:rdf="http://www.w3.org/1999/02/22-rdf-syntax-ns#"
   xmlns:cc="http://creativecommons.org/ns#"
   xmlns:dc="http://purl.org/dc/elements/1.1/">
  <sodipodi:namedview
     id="namedview3986"
     pagecolor="#ffffff"
     bordercolor="#000000"
     borderopacity="0.25"
     inkscape:showpageshadow="2"
     inkscape:pageopacity="0.0"
     inkscape:pagecheckerboard="0"
     inkscape:deskcolor="#d1d1d1"
     inkscape:document-units="pt"
     showgrid="false"
     inkscape:zoom="0.97598711"
     inkscape:cx="937.00008"
     inkscape:cy="236.68345"
     inkscape:window-width="1728"
     inkscape:window-height="996"
     inkscape:window-x="0"
     inkscape:window-y="38"
     inkscape:window-maximized="1"
     inkscape:current-layer="svg3984" />
  <metadata
     id="metadata3551">
    <rdf:RDF>
      <cc:Work>
        <dc:type
           rdf:resource="http://purl.org/dc/dcmitype/StillImage" />
        <dc:date>2022-06-19T15:45:45.627649</dc:date>
        <dc:format>image/svg+xml</dc:format>
        <dc:creator>
          <cc:Agent>
            <dc:title>Matplotlib v3.5.1, https://matplotlib.org/</dc:title>
          </cc:Agent>
        </dc:creator>
      </cc:Work>
    </rdf:RDF>
  </metadata>
  <defs
     id="defs3555">
    <style
       type="text/css"
       id="style3553">*{stroke-linejoin: round; stroke-linecap: butt}</style>
    <defs
       id="defs3966">
      <path
         id="DejaVuSans-46"
         d="M 628,4666 H 3309 V 4134 H 1259 V 2759 H 3109 V 2228 H 1259 V 0 H 628 Z"
         transform="scale(0.015625)" />
      <path
         id="DejaVuSans-43"
         d="m 4122,4306 v -665 q -319,297 -680,443 -361,147 -767,147 -800,0 -1225,-489 -425,-489 -425,-1414 0,-922 425,-1411 425,-489 1225,-489 406,0 767,147 361,147 680,444 V 359 Q 3791,134 3420,21 3050,-91 2638,-91 1578,-91 968,557 359,1206 359,2328 q 0,1125 609,1773 610,649 1670,649 418,0 788,-111 371,-111 696,-333 z"
         transform="scale(0.015625)" />
      <path
         id="DejaVuSans-4d"
         d="m 628,4666 h 941 L 2759,1491 3956,4666 h 941 V 0 H 4281 V 4097 L 3078,897 H 2444 L 1241,4097 V 0 H 628 Z"
         transform="scale(0.015625)" />
    </defs>
    <defs
       id="defs3831">
      <path
         id="m7c7d355676"
         d="M 0,0 H -3.5"
         style="stroke:#000000;stroke-width:0.8" />
    </defs>
    <defs
       id="defs3564">
      <path
         id="ma346fa2420"
         d="M 0,0 V 3.5"
         style="stroke:#000000;stroke-width:0.8" />
    </defs>
    <defs
       id="defs3575">
      <path
         id="DejaVuSans-33"
         d="m 2597,2516 q 453,-97 707,-404 255,-306 255,-756 0,-690 -475,-1069 -475,-378 -1350,-378 -293,0 -604,58 -311,58 -642,174 v 609 q 262,-153 574,-231 313,-78 654,-78 593,0 904,234 311,234 311,681 0,413 -289,645 -289,233 -804,233 h -544 v 519 h 569 q 465,0 712,186 247,186 247,536 0,359 -255,551 -254,193 -729,193 -260,0 -557,-57 -297,-56 -653,-174 v 562 q 360,100 674,150 314,50 592,50 719,0 1137,-327 419,-326 419,-882 0,-388 -222,-655 -222,-267 -631,-370 z"
         transform="scale(0.015625)" />
      <path
         id="DejaVuSans-35"
         d="M 691,4666 H 3169 V 4134 H 1269 V 2991 q 137,47 274,70 138,23 276,23 781,0 1237,-428 457,-428 457,-1159 Q 3513,744 3044,326 2575,-91 1722,-91 1428,-91 1123,-41 819,9 494,109 v 635 q 281,-153 581,-228 300,-75 634,-75 541,0 856,284 316,284 316,772 0,487 -316,771 -315,285 -856,285 -253,0 -505,-56 -251,-56 -513,-175 z"
         transform="scale(0.015625)" />
      <path
         id="DejaVuSans-2e"
         d="m 684,794 h 660 V 0 H 684 Z"
         transform="scale(0.015625)" />
      <path
         id="DejaVuSans-30"
         d="m 2034,4250 q -487,0 -733,-480 -245,-479 -245,-1442 0,-959 245,-1439 246,-480 733,-480 491,0 736,480 246,480 246,1439 0,963 -246,1442 -245,480 -736,480 z m 0,500 q 785,0 1199,-621 414,-620 414,-1801 0,-1178 -414,-1799 -414,-620 -1199,-620 -784,0 -1198,620 -414,621 -414,1799 0,1181 414,1801 414,621 1198,621 z"
         transform="scale(0.015625)" />
    </defs>
    <defs
       id="defs3606">
      <path
         id="DejaVuSans-38"
         d="m 2034,2216 q -450,0 -708,-241 -257,-241 -257,-662 0,-422 257,-663 258,-241 708,-241 450,0 709,242 260,243 260,662 0,421 -258,662 -257,241 -711,241 z m -631,268 q -406,100 -633,378 -226,279 -226,679 0,559 398,884 399,325 1092,325 697,0 1094,-325 397,-325 397,-884 0,-400 -227,-679 -226,-278 -629,-378 456,-106 710,-416 255,-309 255,-755 Q 3634,634 3220,271 2806,-91 2034,-91 1263,-91 848,271 434,634 434,1313 q 0,446 256,755 257,310 713,416 z m -231,997 q 0,-362 226,-565 227,-203 636,-203 407,0 636,203 230,203 230,565 0,363 -230,566 -229,203 -636,203 -409,0 -636,-203 -226,-203 -226,-566 z"
         transform="scale(0.015625)" />
      <path
         id="DejaVuSans-32"
         d="M 1228,531 H 3431 V 0 H 469 v 531 q 359,372 979,998 621,627 780,809 303,340 423,576 121,236 121,464 0,372 -261,606 -261,235 -680,235 -297,0 -627,-103 -329,-103 -704,-313 v 638 q 381,153 712,231 332,78 607,78 725,0 1156,-363 431,-362 431,-968 0,-288 -108,-546 -107,-257 -392,-607 -78,-91 -497,-524 Q 1991,1309 1228,531 Z"
         transform="scale(0.015625)" />
    </defs>
    <defs
       id="defs3735">
      <path
         id="DejaVuSans-36"
         d="m 2113,2584 q -425,0 -674,-291 -248,-290 -248,-796 0,-503 248,-796 249,-292 674,-292 425,0 673,292 248,293 248,796 0,506 -248,796 -248,291 -673,291 z m 1253,1979 v -575 q -238,112 -480,171 -242,60 -480,60 -625,0 -955,-422 -329,-422 -376,-1275 184,272 462,417 279,145 613,145 703,0 1111,-427 408,-426 408,-1160 0,-719 -425,-1154 -425,-434 -1131,-434 -810,0 -1238,620 -428,621 -428,1799 0,1106 525,1764 525,658 1409,658 238,0 480,-47 242,-47 505,-140 z"
         transform="scale(0.015625)" />
    </defs>
    <defs
       id="defs3805">
      <path
         id="DejaVuSans-39"
         d="m 703,97 v 575 q 238,-113 481,-172 244,-59 479,-59 625,0 954,420 330,420 377,1277 -181,-269 -460,-413 -278,-144 -615,-144 -700,0 -1108,423 -408,424 -408,1159 0,718 425,1152 425,435 1131,435 810,0 1236,-621 427,-620 427,-1801 Q 3622,1225 3098,567 2575,-91 1691,-91 1453,-91 1209,-44 966,3 703,97 Z m 1256,1978 q 425,0 673,290 249,291 249,798 0,503 -249,795 -248,292 -673,292 -425,0 -673,-292 -248,-292 -248,-795 0,-507 248,-798 248,-290 673,-290 z"
         transform="scale(0.015625)" />
    </defs>
    <defs
       id="defs3589">
      <path
         id="DejaVuSans-41"
         d="M 2188,4044 1331,1722 h 1716 z m -357,622 h 716 L 4325,0 H 3669 L 3244,1197 H 1141 L 716,0 H 50 Z"
         transform="scale(0.015625)" />
      <path
         id="DejaVuSans-31"
         d="M 794,531 H 1825 V 4091 L 703,3866 v 575 l 1116,225 h 631 V 531 H 3481 V 0 H 794 Z"
         transform="scale(0.015625)" />
    </defs>
    <defs
       id="defs3634">
      <path
         id="DejaVuSans-34"
         d="M 2419,4116 825,1625 h 1594 z m -166,550 h 794 V 1625 h 666 V 1100 H 3047 V 0 H 2419 V 1100 H 313 v 609 z"
         transform="scale(0.015625)" />
    </defs>
    <defs
       id="defs3718">
      <path
         id="DejaVuSans-37"
         d="M 525,4666 H 3525 V 4397 L 1831,0 H 1172 L 2766,4134 H 525 Z"
         transform="scale(0.015625)" />
    </defs>
    <clipPath
       id="padb924bf7f-4">
      <rect
         x="135"
         y="43.200001"
         width="837"
         height="271.79999"
         id="rect3979-8" />
    </clipPath>
  </defs>
  <path
     d="M 0,360 H 1080 V 0 H 0 Z"
     style="fill:none"
     id="path3557" />
  <path
     d="M 135,315 H 972 V 43.2 H 135 Z"
     style="fill:#ffffff"
     id="path3560" />
  <use
     xlink:href="#ma346fa2420"
     x="139.35605"
     y="315"
     style="stroke:#000000;stroke-width:0.8"
     id="use3566" />
  <use
     xlink:href="#DejaVuSans-33"
     id="use3577"
     transform="matrix(0.1,0,0,-0.1,128.22324,329.59844)" />
  <use
     xlink:href="#DejaVuSans-35"
     x="63.623047"
     id="use3579"
     transform="matrix(0.1,0,0,-0.1,128.22324,329.59844)" />
  <use
     xlink:href="#DejaVuSans-2e"
     x="127.24609"
     id="use3581"
     transform="matrix(0.1,0,0,-0.1,128.22324,329.59844)" />
  <use
     xlink:href="#DejaVuSans-30"
     x="159.0332"
     id="use3583"
     transform="matrix(0.1,0,0,-0.1,128.22324,329.59844)" />
  <use
     xlink:href="#DejaVuSans-41"
     id="use3591"
     transform="matrix(0.1,0,0,-0.1,132.75449,340.79625)" />
  <use
     xlink:href="#DejaVuSans-31"
     x="68.408203"
     id="use3593"
     transform="matrix(0.1,0,0,-0.1,132.75449,340.79625)" />
  <use
     xlink:href="#ma346fa2420"
     x="243.75266"
     y="315"
     style="stroke:#000000;stroke-width:0.8"
     id="use3599" />
  <use
     xlink:href="#DejaVuSans-38"
     id="use3608"
     transform="matrix(0.1,0,0,-0.1,229.43859,329.59844)" />
  <use
     xlink:href="#DejaVuSans-38"
     x="63.623047"
     id="use3610"
     transform="matrix(0.1,0,0,-0.1,229.43859,329.59844)" />
  <use
     xlink:href="#DejaVuSans-32"
     x="127.24609"
     id="use3612"
     transform="matrix(0.1,0,0,-0.1,229.43859,329.59844)" />
  <use
     xlink:href="#DejaVuSans-2e"
     x="190.86914"
     id="use3614"
     transform="matrix(0.1,0,0,-0.1,229.43859,329.59844)" />
  <use
     xlink:href="#DejaVuSans-30"
     x="222.65625"
     id="use3616"
     transform="matrix(0.1,0,0,-0.1,229.43859,329.59844)" />
  <use
     xlink:href="#DejaVuSans-41"
     id="use3620"
     transform="matrix(0.1,0,0,-0.1,237.15109,340.79625)" />
  <use
     xlink:href="#DejaVuSans-32"
     x="68.408203"
     id="use3622"
     transform="matrix(0.1,0,0,-0.1,237.15109,340.79625)" />
  <use
     xlink:href="#ma346fa2420"
     x="308.62787"
     y="315"
     style="stroke:#000000;stroke-width:0.8"
     id="use3628" />
  <use
     xlink:href="#DejaVuSans-31"
     id="use3636"
     transform="matrix(0.1,0,0,-0.1,291.13255,329.59844)" />
  <use
     xlink:href="#DejaVuSans-34"
     x="63.623047"
     id="use3638"
     transform="matrix(0.1,0,0,-0.1,291.13255,329.59844)" />
  <use
     xlink:href="#DejaVuSans-30"
     x="127.24609"
     id="use3640"
     transform="matrix(0.1,0,0,-0.1,291.13255,329.59844)" />
  <use
     xlink:href="#DejaVuSans-38"
     x="190.86914"
     id="use3642"
     transform="matrix(0.1,0,0,-0.1,291.13255,329.59844)" />
  <use
     xlink:href="#DejaVuSans-2e"
     x="254.49219"
     id="use3644"
     transform="matrix(0.1,0,0,-0.1,291.13255,329.59844)" />
  <use
     xlink:href="#DejaVuSans-30"
     x="286.2793"
     id="use3646"
     transform="matrix(0.1,0,0,-0.1,291.13255,329.59844)" />
  <use
     xlink:href="#DejaVuSans-41"
     id="use3650"
     transform="matrix(0.1,0,0,-0.1,302.0263,340.79625)" />
  <use
     xlink:href="#DejaVuSans-33"
     x="68.408203"
     id="use3652"
     transform="matrix(0.1,0,0,-0.1,302.0263,340.79625)" />
  <use
     xlink:href="#ma346fa2420"
     x="395.22141"
     y="315"
     style="stroke:#000000;stroke-width:0.8"
     id="use3658" />
  <use
     xlink:href="#DejaVuSans-32"
     id="use3663"
     transform="matrix(0.1,0,0,-0.1,377.7261,329.59844)" />
  <use
     xlink:href="#DejaVuSans-31"
     x="63.623047"
     id="use3665"
     transform="matrix(0.1,0,0,-0.1,377.7261,329.59844)" />
  <use
     xlink:href="#DejaVuSans-31"
     x="127.24609"
     id="use3667"
     transform="matrix(0.1,0,0,-0.1,377.7261,329.59844)" />
  <use
     xlink:href="#DejaVuSans-30"
     x="190.86914"
     id="use3669"
     transform="matrix(0.1,0,0,-0.1,377.7261,329.59844)" />
  <use
     xlink:href="#DejaVuSans-2e"
     x="254.49219"
     id="use3671"
     transform="matrix(0.1,0,0,-0.1,377.7261,329.59844)" />
  <use
     xlink:href="#DejaVuSans-30"
     x="286.2793"
     id="use3673"
     transform="matrix(0.1,0,0,-0.1,377.7261,329.59844)" />
  <use
     xlink:href="#DejaVuSans-41"
     id="use3677"
     transform="matrix(0.1,0,0,-0.1,388.61985,340.79625)" />
  <use
     xlink:href="#DejaVuSans-34"
     x="68.408203"
     id="use3679"
     transform="matrix(0.1,0,0,-0.1,388.61985,340.79625)" />
  <use
     xlink:href="#ma346fa2420"
     x="424.00745"
     y="315"
     style="stroke:#000000;stroke-width:0.8"
     id="use3685" />
  <use
     xlink:href="#DejaVuSans-32"
     id="use3690"
     transform="matrix(0.1,0,0,-0.1,406.51214,329.59844)" />
  <use
     xlink:href="#DejaVuSans-33"
     x="63.623047"
     id="use3692"
     transform="matrix(0.1,0,0,-0.1,406.51214,329.59844)" />
  <use
     xlink:href="#DejaVuSans-34"
     x="127.24609"
     id="use3694"
     transform="matrix(0.1,0,0,-0.1,406.51214,329.59844)" />
  <use
     xlink:href="#DejaVuSans-33"
     x="190.86914"
     id="use3696"
     transform="matrix(0.1,0,0,-0.1,406.51214,329.59844)" />
  <use
     xlink:href="#DejaVuSans-2e"
     x="254.49219"
     id="use3698"
     transform="matrix(0.1,0,0,-0.1,406.51214,329.59844)" />
  <use
     xlink:href="#DejaVuSans-30"
     x="286.2793"
     id="use3700"
     transform="matrix(0.1,0,0,-0.1,406.51214,329.59844)" />
  <use
     xlink:href="#DejaVuSans-41"
     id="use3704"
     transform="matrix(0.1,0,0,-0.1,417.40589,340.79625)" />
  <use
     xlink:href="#DejaVuSans-35"
     x="68.408203"
     id="use3706"
     transform="matrix(0.1,0,0,-0.1,417.40589,340.79625)" />
  <use
     xlink:href="#ma346fa2420"
     x="474.76367"
     y="315"
     style="stroke:#000000;stroke-width:0.8"
     id="use3712" />
  <use
     xlink:href="#DejaVuSans-32"
     id="use3720"
     transform="matrix(0.1,0,0,-0.1,457.26835,329.59844)" />
  <use
     xlink:href="#DejaVuSans-37"
     x="63.623047"
     id="use3722"
     transform="matrix(0.1,0,0,-0.1,457.26835,329.59844)" />
  <use
     xlink:href="#DejaVuSans-35"
     x="127.24609"
     id="use3724"
     transform="matrix(0.1,0,0,-0.1,457.26835,329.59844)" />
  <use
     xlink:href="#DejaVuSans-35"
     x="190.86914"
     id="use3726"
     transform="matrix(0.1,0,0,-0.1,457.26835,329.59844)" />
  <use
     xlink:href="#DejaVuSans-2e"
     x="254.49219"
     id="use3728"
     transform="matrix(0.1,0,0,-0.1,457.26835,329.59844)" />
  <use
     xlink:href="#DejaVuSans-30"
     x="286.2793"
     id="use3730"
     transform="matrix(0.1,0,0,-0.1,457.26835,329.59844)" />
  <use
     xlink:href="#DejaVuSans-41"
     id="use3737"
     transform="matrix(0.1,0,0,-0.1,468.1621,340.79625)" />
  <use
     xlink:href="#DejaVuSans-36"
     x="68.408203"
     id="use3739"
     transform="matrix(0.1,0,0,-0.1,468.1621,340.79625)" />
  <use
     xlink:href="#ma346fa2420"
     x="560.01349"
     y="315"
     style="stroke:#000000;stroke-width:0.8"
     id="use3745" />
  <use
     xlink:href="#DejaVuSans-33"
     id="use3750"
     transform="matrix(0.1,0,0,-0.1,542.51817,329.59844)" />
  <use
     xlink:href="#DejaVuSans-34"
     x="63.623047"
     id="use3752"
     transform="matrix(0.1,0,0,-0.1,542.51817,329.59844)" />
  <use
     xlink:href="#DejaVuSans-34"
     x="127.24609"
     id="use3754"
     transform="matrix(0.1,0,0,-0.1,542.51817,329.59844)" />
  <use
     xlink:href="#DejaVuSans-36"
     x="190.86914"
     id="use3756"
     transform="matrix(0.1,0,0,-0.1,542.51817,329.59844)" />
  <use
     xlink:href="#DejaVuSans-2e"
     x="254.49219"
     id="use3758"
     transform="matrix(0.1,0,0,-0.1,542.51817,329.59844)" />
  <use
     xlink:href="#DejaVuSans-30"
     x="286.2793"
     id="use3760"
     transform="matrix(0.1,0,0,-0.1,542.51817,329.59844)" />
  <use
     xlink:href="#DejaVuSans-41"
     id="use3764"
     transform="matrix(0.1,0,0,-0.1,553.41192,340.79625)" />
  <use
     xlink:href="#DejaVuSans-37"
     x="68.408203"
     id="use3766"
     transform="matrix(0.1,0,0,-0.1,553.41192,340.79625)" />
  <use
     xlink:href="#ma346fa2420"
     x="566.64459"
     y="315"
     style="stroke:#000000;stroke-width:0.8"
     id="use3772" />
  <use
     xlink:href="#DejaVuSans-33"
     id="use3777"
     transform="matrix(0.1,0,0,-0.1,549.1493,329.59844)" />
  <use
     xlink:href="#DejaVuSans-35"
     x="63.623047"
     id="use3779"
     transform="matrix(0.1,0,0,-0.1,549.1493,329.59844)" />
  <use
     xlink:href="#DejaVuSans-30"
     x="127.24609"
     id="use3781"
     transform="matrix(0.1,0,0,-0.1,549.1493,329.59844)" />
  <use
     xlink:href="#DejaVuSans-30"
     x="190.86914"
     id="use3783"
     transform="matrix(0.1,0,0,-0.1,549.1493,329.59844)" />
  <use
     xlink:href="#DejaVuSans-2e"
     x="254.49219"
     id="use3785"
     transform="matrix(0.1,0,0,-0.1,549.1493,329.59844)" />
  <use
     xlink:href="#DejaVuSans-30"
     x="286.2793"
     id="use3787"
     transform="matrix(0.1,0,0,-0.1,549.1493,329.59844)" />
  <use
     xlink:href="#DejaVuSans-41"
     id="use3791"
     transform="matrix(0.1,0,0,-0.1,560.04305,340.79625)" />
  <use
     xlink:href="#DejaVuSans-38"
     x="68.408203"
     id="use3793"
     transform="matrix(0.1,0,0,-0.1,560.04305,340.79625)" />
  <use
     xlink:href="#m7c7d355676"
     x="135"
     y="315"
     style="stroke:#000000;stroke-width:0.8"
     id="use3833" />
  <use
     xlink:href="#DejaVuSans-30"
     id="use3838"
     transform="matrix(0.1,0,0,-0.1,112.09687,318.79922)" />
  <use
     xlink:href="#DejaVuSans-2e"
     x="63.623047"
     id="use3840"
     transform="matrix(0.1,0,0,-0.1,112.09687,318.79922)" />
  <use
     xlink:href="#DejaVuSans-30"
     x="95.410156"
     id="use3842"
     transform="matrix(0.1,0,0,-0.1,112.09687,318.79922)" />
  <use
     xlink:href="#m7c7d355676"
     x="135"
     y="265.58182"
     style="stroke:#000000;stroke-width:0.8"
     id="use3848" />
  <use
     xlink:href="#DejaVuSans-30"
     id="use3853"
     transform="matrix(0.1,0,0,-0.1,112.09687,269.38104)" />
  <use
     xlink:href="#DejaVuSans-2e"
     x="63.623047"
     id="use3855"
     transform="matrix(0.1,0,0,-0.1,112.09687,269.38104)" />
  <use
     xlink:href="#DejaVuSans-32"
     x="95.410156"
     id="use3857"
     transform="matrix(0.1,0,0,-0.1,112.09687,269.38104)" />
  <use
     xlink:href="#m7c7d355676"
     x="135"
     y="216.16364"
     style="stroke:#000000;stroke-width:0.8"
     id="use3863" />
  <use
     xlink:href="#DejaVuSans-30"
     id="use3868"
     transform="matrix(0.1,0,0,-0.1,112.09687,219.96285)" />
  <use
     xlink:href="#DejaVuSans-2e"
     x="63.623047"
     id="use3870"
     transform="matrix(0.1,0,0,-0.1,112.09687,219.96285)" />
  <use
     xlink:href="#DejaVuSans-34"
     x="95.410156"
     id="use3872"
     transform="matrix(0.1,0,0,-0.1,112.09687,219.96285)" />
  <use
     xlink:href="#m7c7d355676"
     x="135"
     y="166.74545"
     style="stroke:#000000;stroke-width:0.8"
     id="use3878" />
  <use
     xlink:href="#DejaVuSans-30"
     id="use3883"
     transform="matrix(0.1,0,0,-0.1,112.09687,170.54467)" />
  <use
     xlink:href="#DejaVuSans-2e"
     x="63.623047"
     id="use3885"
     transform="matrix(0.1,0,0,-0.1,112.09687,170.54467)" />
  <use
     xlink:href="#DejaVuSans-36"
     x="95.410156"
     id="use3887"
     transform="matrix(0.1,0,0,-0.1,112.09687,170.54467)" />
  <use
     xlink:href="#m7c7d355676"
     x="135"
     y="117.32727"
     style="stroke:#000000;stroke-width:0.8"
     id="use3893" />
  <use
     xlink:href="#DejaVuSans-30"
     id="use3898"
     transform="matrix(0.1,0,0,-0.1,112.09687,121.12649)" />
  <use
     xlink:href="#DejaVuSans-2e"
     x="63.623047"
     id="use3900"
     transform="matrix(0.1,0,0,-0.1,112.09687,121.12649)" />
  <use
     xlink:href="#DejaVuSans-38"
     x="95.410156"
     id="use3902"
     transform="matrix(0.1,0,0,-0.1,112.09687,121.12649)" />
  <use
     xlink:href="#m7c7d355676"
     x="135"
     y="67.909088"
     style="stroke:#000000;stroke-width:0.8"
     id="use3908" />
  <use
     xlink:href="#DejaVuSans-31"
     id="use3913"
     transform="matrix(0.1,0,0,-0.1,112.09687,71.70831)" />
  <use
     xlink:href="#DejaVuSans-2e"
     x="63.623047"
     id="use3915"
     transform="matrix(0.1,0,0,-0.1,112.09687,71.70831)" />
  <use
     xlink:href="#DejaVuSans-30"
     x="95.410156"
     id="use3917"
     transform="matrix(0.1,0,0,-0.1,112.09687,71.70831)" />
  <path
     d="M 135,315 139.35605,67.909091 243.75265,315"
     clip-path="url(#padb924bf7f)"
     style="fill:none;stroke:#1f77b4;stroke-width:1.5;stroke-linecap:square"
     id="path3924" />
  <path
     d="M 139.35605,315 243.75265,67.909091 308.62786,315"
     clip-path="url(#padb924bf7f)"
     style="fill:none;stroke:#ff7f0e;stroke-width:1.5;stroke-linecap:square"
     id="path3927" />
  <path
     d="M 243.75265,315 308.62786,67.909091 395.22141,315"
     clip-path="url(#padb924bf7f)"
     style="fill:none;stroke:#2ca02c;stroke-width:1.5;stroke-linecap:square"
     id="path3930" />
  <path
     d="M 308.62786,315 395.22141,67.909091 424.00745,315"
     clip-path="url(#padb924bf7f)"
     style="fill:none;stroke:#d62728;stroke-width:1.5;stroke-linecap:square"
     id="path3933" />
  <path
     d="M 395.22141,315 424.00745,67.909091 474.76367,315"
     clip-path="url(#padb924bf7f)"
     style="fill:none;stroke:#9467bd;stroke-width:1.5;stroke-linecap:square"
     id="path3936" />
  <path
     d="M 424.00745,315 474.76367,67.909091 560.01348,315"
     clip-path="url(#padb924bf7f)"
     style="fill:none;stroke:#8c564b;stroke-width:1.5;stroke-linecap:square"
     id="path3939" />
  <path
     d="M 474.76367,315 560.01348,67.909091 566.64461,315"
     clip-path="url(#padb924bf7f)"
     style="fill:none;stroke:#e377c2;stroke-width:1.5;stroke-linecap:square"
     id="path3942" />
  <path
     d="m 474.76367,315 0.76737,-246.777111 2.76841,246.528421"
     clip-path="url(#padb924bf7f-4)"
     style="fill:none;stroke:#e377c2;stroke-width:1.5;stroke-linecap:square;stroke-linejoin:round"
     id="path3942-0"
     transform="translate(-338.79135,-0.07592304)"
     sodipodi:nodetypes="ccc" />
  <path
     d="M 560.01348,315 566.64461,67.909091 738.57159,315"
     clip-path="url(#padb924bf7f)"
     style="fill:none;stroke:#7f7f7f;stroke-width:1.5;stroke-linecap:square"
     id="path3945" />
  <path
     d="m 566.64461,315 171.92698,-247.090909 1.564,256.243449"
     clip-path="url(#padb924bf7f)"
     style="fill:none;stroke:#bcbd22;stroke-width:1.5;stroke-linecap:square"
     id="path3948"
     sodipodi:nodetypes="ccc" />
  <path
     d="M 135,315 V 43.2"
     style="fill:none;stroke:#000000;stroke-width:0.8;stroke-linecap:square;stroke-linejoin:miter"
     id="path3951" />
  <path
     d="M 972,315 V 43.2"
     style="fill:none;stroke:#000000;stroke-width:0.8;stroke-linecap:square;stroke-linejoin:miter"
     id="path3954" />
  <path
     d="M 135,315 H 972"
     style="fill:none;stroke:#000000;stroke-width:0.8;stroke-linecap:square;stroke-linejoin:miter"
     id="path3957" />
  <path
     d="M 135,43.2 H 972"
     style="fill:none;stroke:#000000;stroke-width:0.8;stroke-linecap:square;stroke-linejoin:miter"
     id="path3960" />
  <use
     xlink:href="#DejaVuSans-46"
     id="use3968"
     transform="matrix(0.12,0,0,-0.12,540.6825,37.2)" />
  <use
     xlink:href="#DejaVuSans-43"
     x="57.519531"
     id="use3970"
     transform="matrix(0.12,0,0,-0.12,540.6825,37.2)" />
  <use
     xlink:href="#DejaVuSans-4d"
     x="127.34375"
     id="use3972"
     transform="matrix(0.12,0,0,-0.12,540.6825,37.2)" />
  <defs
     id="defs3982">
    <clipPath
       id="padb924bf7f">
      <rect
         x="135"
         y="43.2"
         width="837"
         height="271.8"
         id="rect3979" />
    </clipPath>
  </defs>
  <path
     id="use1199"
     d="m 741.11027,315.99475 v 3.5"
     style="stroke:#000000;stroke-width:0.8;stroke-linecap:butt;stroke-linejoin:round" />
  <use
     xlink:href="#DejaVuSans-37"
     x="63.623047"
     id="use776-2"
     transform="matrix(0.1,0,0,-0.1,729.51272,326.39769)"
     style="stroke-linecap:butt;stroke-linejoin:round" />
  <use
     xlink:href="#DejaVuSans-36"
     id="use831"
     transform="matrix(0.1,0,0,-0.1,723.23946,326.39222)"
     style="stroke-linecap:butt;stroke-linejoin:round" />
  <use
     xlink:href="#DejaVuSans-31"
     x="63.623047"
     id="use833"
     transform="matrix(0.1,0,0,-0.1,723.23946,326.39769)"
     style="stroke-linecap:butt;stroke-linejoin:round" />
  <use
     xlink:href="#DejaVuSans-2e"
     x="254.49219"
     id="use839"
     transform="matrix(0.1,0,0,-0.1,723.23946,326.37269)"
     style="stroke-linecap:butt;stroke-linejoin:round" />
  <use
     xlink:href="#DejaVuSans-30"
     x="286.2793"
     id="use841"
     transform="matrix(0.1,0,0,-0.1,723.23946,326.39222)"
     style="stroke-linecap:butt;stroke-linejoin:round" />
  <use
     xlink:href="#DejaVuSans-30"
     x="286.2793"
     id="use841-2"
     transform="matrix(0.1,0,0,-0.1,713.42057,326.39222)"
     style="stroke-linecap:butt;stroke-linejoin:round" />
  <use
     xlink:href="#DejaVuSans-41"
     id="use845"
     transform="matrix(0.1,0,0,-0.1,734.13322,337.6837)"
     style="stroke-linecap:butt;stroke-linejoin:round" />
  <use
     xlink:href="#DejaVuSans-39"
     x="68.408203"
     id="use847"
     transform="matrix(0.1,0,0,-0.1,734.13322,337.6837)"
     style="stroke-linecap:butt;stroke-linejoin:round" />
</svg>
