<?xml version="1.0" encoding="UTF-8" standalone="no"?>
<svg
   width="1080pt"
   height="360pt"
   viewBox="0 0 1080 360"
   version="1.1"
   id="svg1014"
   sodipodi:docname="Grid.svg"
   inkscape:version="1.2 (dc2aeda, 2022-05-15)"
   inkscape:export-filename="Grid.png"
   inkscape:export-xdpi="96"
   inkscape:export-ydpi="96"
   xmlns:inkscape="http://www.inkscape.org/namespaces/inkscape"
   xmlns:sodipodi="http://sodipodi.sourceforge.net/DTD/sodipodi-0.dtd"
   xmlns:xlink="http://www.w3.org/1999/xlink"
   xmlns="http://www.w3.org/2000/svg"
   xmlns:svg="http://www.w3.org/2000/svg"
   xmlns:rdf="http://www.w3.org/1999/02/22-rdf-syntax-ns#"
   xmlns:cc="http://creativecommons.org/ns#"
   xmlns:dc="http://purl.org/dc/elements/1.1/">
  <sodipodi:namedview
     id="namedview1016"
     pagecolor="#ffffff"
     bordercolor="#000000"
     borderopacity="0.25"
     inkscape:showpageshadow="2"
     inkscape:pageopacity="0.0"
     inkscape:pagecheckerboard="0"
     inkscape:deskcolor="#d1d1d1"
     inkscape:document-units="pt"
     showgrid="false"
     inkscape:zoom="1.0223293"
     inkscape:cx="691.55802"
     inkscape:cy="231.82355"
     inkscape:window-width="1728"
     inkscape:window-height="996"
     inkscape:window-x="0"
     inkscape:window-y="38"
     inkscape:window-maximized="1"
     inkscape:current-layer="axes_1" />
  <metadata
     id="metadata548">
    <rdf:RDF>
      <cc:Work>
        <dc:type
           rdf:resource="http://purl.org/dc/dcmitype/StillImage" />
        <dc:date>2022-06-19T15:35:41.291384</dc:date>
        <dc:format>image/svg+xml</dc:format>
        <dc:creator>
          <cc:Agent>
            <dc:title>Matplotlib v3.5.1, https://matplotlib.org/</dc:title>
          </cc:Agent>
        </dc:creator>
      </cc:Work>
    </rdf:RDF>
  </metadata>
  <defs
     id="defs552">
    <style
       type="text/css"
       id="style550">*{stroke-linejoin: round; stroke-linecap: butt}</style>
    <defs
       id="defs994">
      <path
         id="DejaVuSans-47"
         d="M 3809,666 V 1919 H 2778 v 519 H 4434 V 434 Q 4069,175 3628,42 3188,-91 2688,-91 1594,-91 976,548 359,1188 359,2328 q 0,1144 617,1783 618,639 1712,639 456,0 867,-113 411,-112 758,-331 v -672 q -350,297 -744,447 -394,150 -828,150 -857,0 -1287,-478 -429,-478 -429,-1425 0,-944 429,-1422 430,-478 1287,-478 334,0 596,58 263,58 472,180 z"
         transform="scale(0.015625)" />
      <path
         id="DejaVuSans-72"
         d="m 2631,2963 q -97,56 -211,82 -114,27 -251,27 -488,0 -749,-317 -261,-317 -261,-911 V 0 H 581 v 3500 h 578 v -544 q 182,319 472,473 291,155 707,155 59,0 131,-8 72,-7 159,-23 z"
         transform="scale(0.015625)" />
      <path
         id="DejaVuSans-69"
         d="m 603,3500 h 575 V 0 H 603 Z m 0,1363 h 575 V 4134 H 603 Z"
         transform="scale(0.015625)" />
      <path
         id="DejaVuSans-64"
         d="m 2906,2969 v 1894 h 575 V 0 H 2906 V 525 Q 2725,213 2448,61 2172,-91 1784,-91 1150,-91 751,415 353,922 353,1747 q 0,825 398,1331 399,506 1033,506 388,0 664,-152 277,-151 458,-463 z M 947,1747 q 0,-634 261,-995 261,-361 717,-361 456,0 718,361 263,361 263,995 0,634 -263,995 -262,361 -718,361 -456,0 -717,-361 -261,-361 -261,-995 z"
         transform="scale(0.015625)" />
    </defs>
    <defs
       id="defs855">
      <path
         id="mbb7202d301"
         d="M 0,0 H -3.5"
         style="stroke:#000000;stroke-width:0.8" />
    </defs>
    <defs
       id="defs561">
      <path
         id="m64570fe3e8"
         d="M 0,0 V 3.5"
         style="stroke:#000000;stroke-width:0.8" />
    </defs>
    <defs
       id="defs570">
      <path
         id="DejaVuSans-30"
         d="m 2034,4250 q -487,0 -733,-480 -245,-479 -245,-1442 0,-959 245,-1439 246,-480 733,-480 491,0 736,480 246,480 246,1439 0,963 -246,1442 -245,480 -736,480 z m 0,500 q 785,0 1199,-621 414,-620 414,-1801 0,-1178 -414,-1799 -414,-620 -1199,-620 -784,0 -1198,620 -414,621 -414,1799 0,1181 414,1801 414,621 1198,621 z"
         transform="scale(0.015625)" />
      <path
         id="DejaVuSans-2e"
         d="m 684,794 h 660 V 0 H 684 Z"
         transform="scale(0.015625)" />
    </defs>
    <defs
       id="defs816">
      <path
         id="DejaVuSans-38"
         d="m 2034,2216 q -450,0 -708,-241 -257,-241 -257,-662 0,-422 257,-663 258,-241 708,-241 450,0 709,242 260,243 260,662 0,421 -258,662 -257,241 -711,241 z m -631,268 q -406,100 -633,378 -226,279 -226,679 0,559 398,884 399,325 1092,325 697,0 1094,-325 397,-325 397,-884 0,-400 -227,-679 -226,-278 -629,-378 456,-106 710,-416 255,-309 255,-755 Q 3634,634 3220,271 2806,-91 2034,-91 1263,-91 848,271 434,634 434,1313 q 0,446 256,755 257,310 713,416 z m -231,997 q 0,-362 226,-565 227,-203 636,-203 407,0 636,203 230,203 230,565 0,363 -230,566 -229,203 -636,203 -409,0 -636,-203 -226,-203 -226,-566 z"
         transform="scale(0.015625)" />
    </defs>
    <defs
       id="defs581">
      <path
         id="DejaVuSans-41"
         d="M 2188,4044 1331,1722 h 1716 z m -357,622 h 716 L 4325,0 H 3669 L 3244,1197 H 1141 L 716,0 H 50 Z"
         transform="scale(0.015625)" />
    </defs>
    <defs
       id="defs599">
      <path
         id="DejaVuSans-36"
         d="m 2113,2584 q -425,0 -674,-291 -248,-290 -248,-796 0,-503 248,-796 249,-292 674,-292 425,0 673,292 248,293 248,796 0,506 -248,796 -248,291 -673,291 z m 1253,1979 v -575 q -238,112 -480,171 -242,60 -480,60 -625,0 -955,-422 -329,-422 -376,-1275 184,272 462,417 279,145 613,145 703,0 1111,-427 408,-426 408,-1160 0,-719 -425,-1154 -425,-434 -1131,-434 -810,0 -1238,620 -428,621 -428,1799 0,1106 525,1764 525,658 1409,658 238,0 480,-47 242,-47 505,-140 z"
         transform="scale(0.015625)" />
      <path
         id="DejaVuSans-37"
         d="M 525,4666 H 3525 V 4397 L 1831,0 H 1172 L 2766,4134 H 525 Z"
         transform="scale(0.015625)" />
      <path
         id="DejaVuSans-39"
         d="m 703,97 v 575 q 238,-113 481,-172 244,-59 479,-59 625,0 954,420 330,420 377,1277 -181,-269 -460,-413 -278,-144 -615,-144 -700,0 -1108,423 -408,424 -408,1159 0,718 425,1152 425,435 1131,435 810,0 1236,-621 427,-620 427,-1801 Q 3622,1225 3098,567 2575,-91 1691,-91 1453,-91 1209,-44 966,3 703,97 Z m 1256,1978 q 425,0 673,290 249,291 249,798 0,503 -249,795 -248,292 -673,292 -425,0 -673,-292 -248,-292 -248,-795 0,-507 248,-798 248,-290 673,-290 z"
         transform="scale(0.015625)" />
    </defs>
    <defs
       id="defs648">
      <path
         id="DejaVuSans-32"
         d="M 1228,531 H 3431 V 0 H 469 v 531 q 359,372 979,998 621,627 780,809 303,340 423,576 121,236 121,464 0,372 -261,606 -261,235 -680,235 -297,0 -627,-103 -329,-103 -704,-313 v 638 q 381,153 712,231 332,78 607,78 725,0 1156,-363 431,-362 431,-968 0,-288 -108,-546 -107,-257 -392,-607 -78,-91 -497,-524 Q 1991,1309 1228,531 Z"
         transform="scale(0.015625)" />
    </defs>
    <defs
       id="defs631">
      <path
         id="DejaVuSans-33"
         d="m 2597,2516 q 453,-97 707,-404 255,-306 255,-756 0,-690 -475,-1069 -475,-378 -1350,-378 -293,0 -604,58 -311,58 -642,174 v 609 q 262,-153 574,-231 313,-78 654,-78 593,0 904,234 311,234 311,681 0,413 -289,645 -289,233 -804,233 h -544 v 519 h 569 q 465,0 712,186 247,186 247,536 0,359 -255,551 -254,193 -729,193 -260,0 -557,-57 -297,-56 -653,-174 v 562 q 360,100 674,150 314,50 592,50 719,0 1137,-327 419,-326 419,-882 0,-388 -222,-655 -222,-267 -631,-370 z"
         transform="scale(0.015625)" />
      <path
         id="DejaVuSans-35"
         d="M 691,4666 H 3169 V 4134 H 1269 V 2991 q 137,47 274,70 138,23 276,23 781,0 1237,-428 457,-428 457,-1159 Q 3513,744 3044,326 2575,-91 1722,-91 1428,-91 1123,-41 819,9 494,109 v 635 q 281,-153 581,-228 300,-75 634,-75 541,0 856,284 316,284 316,772 0,487 -316,771 -315,285 -856,285 -253,0 -505,-56 -251,-56 -513,-175 z"
         transform="scale(0.015625)" />
    </defs>
    <defs
       id="defs705">
      <path
         id="DejaVuSans-34"
         d="M 2419,4116 825,1625 h 1594 z m -166,550 h 794 V 1625 h 666 V 1100 H 3047 V 0 H 2419 V 1100 H 313 v 609 z"
         transform="scale(0.015625)" />
    </defs>
    <defs
       id="defs614">
      <path
         id="DejaVuSans-31"
         d="M 794,531 H 1825 V 4091 L 703,3866 v 575 l 1116,225 h 631 V 531 H 3481 V 0 H 794 Z"
         transform="scale(0.015625)" />
    </defs>
  </defs>
  <g
     id="figure_1">
    <g
       id="patch_1">
      <path
         d="M 0 360  L 1080 360  L 1080 0  L 0 0  L 0 360  z "
         style="fill: none"
         id="path554" />
    </g>
    <g
       id="axes_1">
      <path
         d="M 135,315 H 972 V 43.2 H 135 Z"
         style="fill:#ffffff"
         id="path557" />
      <use
         xlink:href="#m64570fe3e8"
         x="211.09091"
         y="315"
         style="stroke:#000000;stroke-width:0.8"
         id="use563" />
      <use
         xlink:href="#DejaVuSans-30"
         id="use572"
         transform="matrix(0.1,0,0,-0.1,203.13935,329.59844)" />
      <use
         xlink:href="#DejaVuSans-2e"
         x="63.623047"
         id="use574"
         transform="matrix(0.1,0,0,-0.1,203.13935,329.59844)" />
      <use
         xlink:href="#DejaVuSans-30"
         x="95.410156"
         id="use576"
         transform="matrix(0.1,0,0,-0.1,203.13935,329.59844)" />
      <use
         xlink:href="#DejaVuSans-41"
         id="use583"
         transform="matrix(0.1,0,0,-0.1,204.48935,340.79625)" />
      <use
         xlink:href="#DejaVuSans-30"
         x="68.408203"
         id="use585"
         transform="matrix(0.1,0,0,-0.1,204.48935,340.79625)" />
      <use
         xlink:href="#m64570fe3e8"
         x="287.18182"
         y="315"
         style="stroke:#000000;stroke-width:0.8"
         id="use591" />
      <use
         xlink:href="#DejaVuSans-36"
         id="use601"
         transform="matrix(0.1,0,0,-0.1,272.86776,329.59844)" />
      <use
         xlink:href="#DejaVuSans-37"
         x="63.623047"
         id="use603"
         transform="matrix(0.1,0,0,-0.1,272.86776,329.59844)" />
      <use
         xlink:href="#DejaVuSans-39"
         x="127.24609"
         id="use605"
         transform="matrix(0.1,0,0,-0.1,272.86776,329.59844)" />
      <use
         xlink:href="#DejaVuSans-2e"
         x="190.86914"
         id="use607"
         transform="matrix(0.1,0,0,-0.1,272.86776,329.59844)" />
      <use
         xlink:href="#DejaVuSans-30"
         x="222.65625"
         id="use609"
         transform="matrix(0.1,0,0,-0.1,272.86776,329.59844)" />
      <use
         xlink:href="#DejaVuSans-41"
         id="use616"
         transform="matrix(0.1,0,0,-0.1,280.58026,340.79625)" />
      <use
         xlink:href="#DejaVuSans-31"
         x="68.408203"
         id="use618"
         transform="matrix(0.1,0,0,-0.1,280.58026,340.79625)" />
      <use
         xlink:href="#m64570fe3e8"
         x="363.27274"
         y="315"
         style="stroke:#000000;stroke-width:0.8"
         id="use624" />
      <use
         xlink:href="#DejaVuSans-31"
         id="use633"
         transform="matrix(0.1,0,0,-0.1,345.77742,329.59844)" />
      <use
         xlink:href="#DejaVuSans-33"
         x="63.623047"
         id="use635"
         transform="matrix(0.1,0,0,-0.1,345.77742,329.59844)" />
      <use
         xlink:href="#DejaVuSans-35"
         x="127.24609"
         id="use637"
         transform="matrix(0.1,0,0,-0.1,345.77742,329.59844)" />
      <use
         xlink:href="#DejaVuSans-37"
         x="190.86914"
         id="use639"
         transform="matrix(0.1,0,0,-0.1,345.77742,329.59844)" />
      <use
         xlink:href="#DejaVuSans-2e"
         x="254.49219"
         id="use641"
         transform="matrix(0.1,0,0,-0.1,345.77742,329.59844)" />
      <use
         xlink:href="#DejaVuSans-30"
         x="286.2793"
         id="use643"
         transform="matrix(0.1,0,0,-0.1,345.77742,329.59844)" />
      <use
         xlink:href="#DejaVuSans-41"
         id="use650"
         transform="matrix(0.1,0,0,-0.1,356.67116,340.79625)" />
      <use
         xlink:href="#DejaVuSans-32"
         x="68.408203"
         id="use652"
         transform="matrix(0.1,0,0,-0.1,356.67116,340.79625)" />
      <use
         xlink:href="#m64570fe3e8"
         x="439.36365"
         y="315"
         style="stroke:#000000;stroke-width:0.8"
         id="use658" />
      <use
         xlink:href="#DejaVuSans-32"
         id="use663"
         transform="matrix(0.1,0,0,-0.1,421.86832,329.59844)" />
      <use
         xlink:href="#DejaVuSans-30"
         x="63.623047"
         id="use665"
         transform="matrix(0.1,0,0,-0.1,421.86832,329.59844)" />
      <use
         xlink:href="#DejaVuSans-33"
         x="127.24609"
         id="use667"
         transform="matrix(0.1,0,0,-0.1,421.86832,329.59844)" />
      <use
         xlink:href="#DejaVuSans-36"
         x="190.86914"
         id="use669"
         transform="matrix(0.1,0,0,-0.1,421.86832,329.59844)" />
      <use
         xlink:href="#DejaVuSans-2e"
         x="254.49219"
         id="use671"
         transform="matrix(0.1,0,0,-0.1,421.86832,329.59844)" />
      <use
         xlink:href="#DejaVuSans-30"
         x="286.2793"
         id="use673"
         transform="matrix(0.1,0,0,-0.1,421.86832,329.59844)" />
      <use
         xlink:href="#DejaVuSans-41"
         id="use677"
         transform="matrix(0.1,0,0,-0.1,432.76207,340.79625)" />
      <use
         xlink:href="#DejaVuSans-33"
         x="68.408203"
         id="use679"
         transform="matrix(0.1,0,0,-0.1,432.76207,340.79625)" />
      <use
         xlink:href="#m64570fe3e8"
         x="515.45453"
         y="315"
         style="stroke:#000000;stroke-width:0.8"
         id="use685" />
      <use
         xlink:href="#DejaVuSans-32"
         id="use690"
         transform="matrix(0.1,0,0,-0.1,497.95923,329.59844)" />
      <use
         xlink:href="#DejaVuSans-37"
         x="63.623047"
         id="use692"
         transform="matrix(0.1,0,0,-0.1,497.95923,329.59844)" />
      <use
         xlink:href="#DejaVuSans-31"
         x="127.24609"
         id="use694"
         transform="matrix(0.1,0,0,-0.1,497.95923,329.59844)" />
      <use
         xlink:href="#DejaVuSans-35"
         x="190.86914"
         id="use696"
         transform="matrix(0.1,0,0,-0.1,497.95923,329.59844)" />
      <use
         xlink:href="#DejaVuSans-2e"
         x="254.49219"
         id="use698"
         transform="matrix(0.1,0,0,-0.1,497.95923,329.59844)" />
      <use
         xlink:href="#DejaVuSans-30"
         x="286.2793"
         id="use700"
         transform="matrix(0.1,0,0,-0.1,497.95923,329.59844)" />
      <use
         xlink:href="#DejaVuSans-41"
         id="use707"
         transform="matrix(0.1,0,0,-0.1,508.85298,340.79625)" />
      <use
         xlink:href="#DejaVuSans-34"
         x="68.408203"
         id="use709"
         transform="matrix(0.1,0,0,-0.1,508.85298,340.79625)" />
      <use
         xlink:href="#m64570fe3e8"
         x="591.54547"
         y="315"
         style="stroke:#000000;stroke-width:0.8"
         id="use715" />
      <use
         xlink:href="#DejaVuSans-33"
         id="use720"
         transform="matrix(0.1,0,0,-0.1,574.05014,329.59844)" />
      <use
         xlink:href="#DejaVuSans-33"
         x="63.623047"
         id="use722"
         transform="matrix(0.1,0,0,-0.1,574.05014,329.59844)" />
      <use
         xlink:href="#DejaVuSans-39"
         x="127.24609"
         id="use724"
         transform="matrix(0.1,0,0,-0.1,574.05014,329.59844)" />
      <use
         xlink:href="#DejaVuSans-34"
         x="190.86914"
         id="use726"
         transform="matrix(0.1,0,0,-0.1,574.05014,329.59844)" />
      <use
         xlink:href="#DejaVuSans-2e"
         x="254.49219"
         id="use728"
         transform="matrix(0.1,0,0,-0.1,574.05014,329.59844)" />
      <use
         xlink:href="#DejaVuSans-30"
         x="286.2793"
         id="use730"
         transform="matrix(0.1,0,0,-0.1,574.05014,329.59844)" />
      <use
         xlink:href="#DejaVuSans-41"
         id="use734"
         transform="matrix(0.1,0,0,-0.1,584.94389,340.79625)" />
      <use
         xlink:href="#DejaVuSans-35"
         x="68.408203"
         id="use736"
         transform="matrix(0.1,0,0,-0.1,584.94389,340.79625)" />
      <use
         xlink:href="#m64570fe3e8"
         x="667.63635"
         y="315"
         style="stroke:#000000;stroke-width:0.8"
         id="use742" />
      <use
         xlink:href="#DejaVuSans-34"
         id="use747"
         transform="matrix(0.1,0,0,-0.1,650.14105,329.59844)" />
      <use
         xlink:href="#DejaVuSans-30"
         x="63.623047"
         id="use749"
         transform="matrix(0.1,0,0,-0.1,650.14105,329.59844)" />
      <use
         xlink:href="#DejaVuSans-37"
         x="127.24609"
         id="use751"
         transform="matrix(0.1,0,0,-0.1,650.14105,329.59844)" />
      <use
         xlink:href="#DejaVuSans-32"
         x="190.86914"
         id="use753"
         transform="matrix(0.1,0,0,-0.1,650.14105,329.59844)" />
      <use
         xlink:href="#DejaVuSans-2e"
         x="254.49219"
         id="use755"
         transform="matrix(0.1,0,0,-0.1,650.14105,329.59844)" />
      <use
         xlink:href="#DejaVuSans-30"
         x="286.2793"
         id="use757"
         transform="matrix(0.1,0,0,-0.1,650.14105,329.59844)" />
      <use
         xlink:href="#DejaVuSans-41"
         id="use761"
         transform="matrix(0.1,0,0,-0.1,661.0348,340.79625)" />
      <use
         xlink:href="#DejaVuSans-36"
         x="68.408203"
         id="use763"
         transform="matrix(0.1,0,0,-0.1,661.0348,340.79625)" />
      <use
         xlink:href="#m64570fe3e8"
         x="743.72729"
         y="315"
         style="stroke:#000000;stroke-width:0.8"
         id="use769" />
      <use
         xlink:href="#DejaVuSans-34"
         id="use774"
         transform="matrix(0.1,0,0,-0.1,726.23196,329.59844)" />
      <use
         xlink:href="#DejaVuSans-37"
         x="63.623047"
         id="use776"
         transform="matrix(0.1,0,0,-0.1,726.23196,329.59844)" />
      <use
         xlink:href="#DejaVuSans-37"
         x="63.623047"
         id="use776-2"
         transform="matrix(0.1,0,0,-0.1,884.68703,329.51024)"
         style="stroke-linecap:butt;stroke-linejoin:round" />
      <use
         xlink:href="#DejaVuSans-35"
         x="127.24609"
         id="use778"
         transform="matrix(0.1,0,0,-0.1,726.23196,329.59844)" />
      <use
         xlink:href="#DejaVuSans-31"
         x="190.86914"
         id="use780"
         transform="matrix(0.1,0,0,-0.1,726.23196,329.59844)" />
      <use
         xlink:href="#DejaVuSans-2e"
         x="254.49219"
         id="use782"
         transform="matrix(0.1,0,0,-0.1,726.23196,329.59844)" />
      <use
         xlink:href="#DejaVuSans-30"
         x="286.2793"
         id="use784"
         transform="matrix(0.1,0,0,-0.1,726.23196,329.59844)" />
      <use
         xlink:href="#DejaVuSans-41"
         id="use788"
         transform="matrix(0.1,0,0,-0.1,737.12571,340.79625)" />
      <use
         xlink:href="#DejaVuSans-37"
         x="68.408203"
         id="use790"
         transform="matrix(0.1,0,0,-0.1,737.12571,340.79625)" />
      <use
         xlink:href="#m64570fe3e8"
         x="819.81818"
         y="315"
         style="stroke:#000000;stroke-width:0.8"
         id="use796" />
      <use
         xlink:href="#DejaVuSans-35"
         id="use801"
         transform="matrix(0.1,0,0,-0.1,802.32287,329.59844)" />
      <use
         xlink:href="#DejaVuSans-34"
         x="63.623047"
         id="use803"
         transform="matrix(0.1,0,0,-0.1,802.32287,329.59844)" />
      <use
         xlink:href="#DejaVuSans-33"
         x="127.24609"
         id="use805"
         transform="matrix(0.1,0,0,-0.1,802.32287,329.59844)" />
      <use
         xlink:href="#DejaVuSans-30"
         x="190.86914"
         id="use807"
         transform="matrix(0.1,0,0,-0.1,802.32287,329.59844)" />
      <use
         xlink:href="#DejaVuSans-2e"
         x="254.49219"
         id="use809"
         transform="matrix(0.1,0,0,-0.1,802.32287,329.59844)" />
      <use
         xlink:href="#DejaVuSans-30"
         x="286.2793"
         id="use811"
         transform="matrix(0.1,0,0,-0.1,802.32287,329.59844)" />
      <use
         xlink:href="#DejaVuSans-41"
         id="use818"
         transform="matrix(0.1,0,0,-0.1,813.21662,340.79625)" />
      <use
         xlink:href="#DejaVuSans-38"
         x="68.408203"
         id="use820"
         transform="matrix(0.1,0,0,-0.1,813.21662,340.79625)" />
      <use
         xlink:href="#m64570fe3e8"
         x="895.90912"
         y="315"
         style="stroke:#000000;stroke-width:0.8"
         id="use826" />
      <use
         xlink:href="#DejaVuSans-36"
         id="use831"
         transform="matrix(0.1,0,0,-0.1,878.41378,329.50477)" />
      <use
         xlink:href="#DejaVuSans-31"
         x="63.623047"
         id="use833"
         transform="matrix(0.1,0,0,-0.1,878.41378,329.51024)" />
      <use
         xlink:href="#DejaVuSans-2e"
         x="254.49219"
         id="use839"
         transform="matrix(0.1,0,0,-0.1,878.41378,329.48524)" />
      <use
         xlink:href="#DejaVuSans-30"
         x="286.2793"
         id="use841"
         transform="matrix(0.1,0,0,-0.1,878.41378,329.50477)" />
      <use
         xlink:href="#DejaVuSans-30"
         x="286.2793"
         id="use841-2"
         transform="matrix(0.1,0,0,-0.1,868.59489,329.50477)"
         style="stroke-linecap:butt;stroke-linejoin:round" />
      <use
         xlink:href="#DejaVuSans-41"
         id="use845"
         transform="matrix(0.1,0,0,-0.1,889.30753,340.79625)" />
      <use
         xlink:href="#DejaVuSans-39"
         x="68.408203"
         id="use847"
         transform="matrix(0.1,0,0,-0.1,889.30753,340.79625)" />
      <use
         xlink:href="#mbb7202d301"
         x="135"
         y="315"
         style="stroke:#000000;stroke-width:0.8"
         id="use857" />
      <use
         xlink:href="#DejaVuSans-30"
         id="use862"
         transform="matrix(0.1,0,0,-0.1,112.09687,318.79922)" />
      <use
         xlink:href="#DejaVuSans-2e"
         x="63.623047"
         id="use864"
         transform="matrix(0.1,0,0,-0.1,112.09687,318.79922)" />
      <use
         xlink:href="#DejaVuSans-30"
         x="95.410156"
         id="use866"
         transform="matrix(0.1,0,0,-0.1,112.09687,318.79922)" />
      <use
         xlink:href="#mbb7202d301"
         x="135"
         y="265.58182"
         style="stroke:#000000;stroke-width:0.8"
         id="use872" />
      <use
         xlink:href="#DejaVuSans-30"
         id="use877"
         transform="matrix(0.1,0,0,-0.1,112.09687,269.38104)" />
      <use
         xlink:href="#DejaVuSans-2e"
         x="63.623047"
         id="use879"
         transform="matrix(0.1,0,0,-0.1,112.09687,269.38104)" />
      <use
         xlink:href="#DejaVuSans-32"
         x="95.410156"
         id="use881"
         transform="matrix(0.1,0,0,-0.1,112.09687,269.38104)" />
      <use
         xlink:href="#mbb7202d301"
         x="135"
         y="216.16364"
         style="stroke:#000000;stroke-width:0.8"
         id="use887" />
      <use
         xlink:href="#DejaVuSans-30"
         id="use892"
         transform="matrix(0.1,0,0,-0.1,112.09687,219.96285)" />
      <use
         xlink:href="#DejaVuSans-2e"
         x="63.623047"
         id="use894"
         transform="matrix(0.1,0,0,-0.1,112.09687,219.96285)" />
      <use
         xlink:href="#DejaVuSans-34"
         x="95.410156"
         id="use896"
         transform="matrix(0.1,0,0,-0.1,112.09687,219.96285)" />
      <use
         xlink:href="#mbb7202d301"
         x="135"
         y="166.74545"
         style="stroke:#000000;stroke-width:0.8"
         id="use902" />
      <use
         xlink:href="#DejaVuSans-30"
         id="use907"
         transform="matrix(0.1,0,0,-0.1,112.09687,170.54467)" />
      <use
         xlink:href="#DejaVuSans-2e"
         x="63.623047"
         id="use909"
         transform="matrix(0.1,0,0,-0.1,112.09687,170.54467)" />
      <use
         xlink:href="#DejaVuSans-36"
         x="95.410156"
         id="use911"
         transform="matrix(0.1,0,0,-0.1,112.09687,170.54467)" />
      <use
         xlink:href="#mbb7202d301"
         x="135"
         y="117.32727"
         style="stroke:#000000;stroke-width:0.8"
         id="use917" />
      <use
         xlink:href="#DejaVuSans-30"
         id="use922"
         transform="matrix(0.1,0,0,-0.1,112.09687,121.12649)" />
      <use
         xlink:href="#DejaVuSans-2e"
         x="63.623047"
         id="use924"
         transform="matrix(0.1,0,0,-0.1,112.09687,121.12649)" />
      <use
         xlink:href="#DejaVuSans-38"
         x="95.410156"
         id="use926"
         transform="matrix(0.1,0,0,-0.1,112.09687,121.12649)" />
      <use
         xlink:href="#mbb7202d301"
         x="135"
         y="67.909088"
         style="stroke:#000000;stroke-width:0.8"
         id="use932" />
      <use
         xlink:href="#DejaVuSans-31"
         id="use937"
         transform="matrix(0.1,0,0,-0.1,112.09687,71.70831)" />
      <use
         xlink:href="#DejaVuSans-2e"
         x="63.623047"
         id="use939"
         transform="matrix(0.1,0,0,-0.1,112.09687,71.70831)" />
      <use
         xlink:href="#DejaVuSans-30"
         x="95.410156"
         id="use941"
         transform="matrix(0.1,0,0,-0.1,112.09687,71.70831)" />
      <path
         d="M 211.27119,318.05085 211.09091,67.909091 287.18182,315"
         clip-path="url(#pcfa7fa69c6)"
         style="fill:none;stroke:#1f77b4;stroke-width:1.5;stroke-linecap:square"
         id="path948"
         sodipodi:nodetypes="ccc" />
      <path
         d="M 211.09091,315 287.18182,67.909091 363.27273,315"
         clip-path="url(#pcfa7fa69c6)"
         style="fill:none;stroke:#ff7f0e;stroke-width:1.5;stroke-linecap:square"
         id="path951" />
      <path
         d="M 287.18182,315 363.27273,67.909091 439.36364,315"
         clip-path="url(#pcfa7fa69c6)"
         style="fill:none;stroke:#2ca02c;stroke-width:1.5;stroke-linecap:square"
         id="path954" />
      <path
         d="M 363.27273,315 439.36364,67.909091 515.45455,315"
         clip-path="url(#pcfa7fa69c6)"
         style="fill:none;stroke:#d62728;stroke-width:1.5;stroke-linecap:square"
         id="path957" />
      <path
         d="M 439.36364,315 515.45455,67.909091 591.54545,315"
         clip-path="url(#pcfa7fa69c6)"
         style="fill:none;stroke:#9467bd;stroke-width:1.5;stroke-linecap:square"
         id="path960" />
      <path
         d="M 515.45455,315 591.54545,67.909091 667.63636,315"
         clip-path="url(#pcfa7fa69c6)"
         style="fill:none;stroke:#8c564b;stroke-width:1.5;stroke-linecap:square"
         id="path963" />
      <path
         d="M 591.54545,315 667.63636,67.909091 743.72727,315"
         clip-path="url(#pcfa7fa69c6)"
         style="fill:none;stroke:#e377c2;stroke-width:1.5;stroke-linecap:square"
         id="path966" />
      <path
         d="M 667.63636,315 743.72727,67.909091 819.81818,315"
         clip-path="url(#pcfa7fa69c6)"
         style="fill:none;stroke:#7f7f7f;stroke-width:1.5;stroke-linecap:square"
         id="path969" />
      <path
         d="M 743.72727,315 819.81818,67.909091 895.90909,315"
         clip-path="url(#pcfa7fa69c6)"
         style="fill:none;stroke:#bcbd22;stroke-width:1.5;stroke-linecap:square"
         id="path972" />
      <path
         d="M 819.81818,315 895.90909,67.909091 896.75666,318.68916"
         clip-path="url(#pcfa7fa69c6)"
         style="fill:none;stroke:#17becf;stroke-width:1.5;stroke-linecap:square"
         id="path975"
         sodipodi:nodetypes="ccc" />
      <path
         d="M 135,315 V 43.2"
         style="fill:none;stroke:#000000;stroke-width:0.8;stroke-linecap:square;stroke-linejoin:miter"
         id="path978" />
      <path
         d="M 972,315 V 43.2"
         style="fill:none;stroke:#000000;stroke-width:0.8;stroke-linecap:square;stroke-linejoin:miter"
         id="path981" />
      <path
         d="M 135,315 H 972"
         style="fill:none;stroke:#000000;stroke-width:0.8;stroke-linecap:square;stroke-linejoin:miter"
         id="path984" />
      <path
         d="M 135,43.2 H 972"
         style="fill:none;stroke:#000000;stroke-width:0.8;stroke-linecap:square;stroke-linejoin:miter"
         id="path987" />
      <use
         xlink:href="#DejaVuSans-47"
         id="use996"
         transform="matrix(0.12,0,0,-0.12,540.90844,37.2)" />
      <use
         xlink:href="#DejaVuSans-72"
         x="77.490234"
         id="use998"
         transform="matrix(0.12,0,0,-0.12,540.90844,37.2)" />
      <use
         xlink:href="#DejaVuSans-69"
         x="118.60352"
         id="use1000"
         transform="matrix(0.12,0,0,-0.12,540.90844,37.2)" />
      <use
         xlink:href="#DejaVuSans-64"
         x="146.38672"
         id="use1002"
         transform="matrix(0.12,0,0,-0.12,540.90844,37.2)" />
    </g>
  </g>
  <defs
     id="defs1012">
    <clipPath
       id="pcfa7fa69c6">
      <rect
         x="135"
         y="43.2"
         width="837"
         height="271.8"
         id="rect1009" />
    </clipPath>
  </defs>
</svg>
