<?xml version="1.0" encoding="UTF-8" standalone="no"?>
<svg
   width="1080pt"
   height="360pt"
   viewBox="0 0 1080 360"
   version="1.1"
   id="svg3566"
   sodipodi:docname="Entropy.svg"
   inkscape:version="1.2 (dc2aeda, 2022-05-15)"
   inkscape:export-filename="Entropy.png"
   inkscape:export-xdpi="96"
   inkscape:export-ydpi="96"
   xmlns:inkscape="http://www.inkscape.org/namespaces/inkscape"
   xmlns:sodipodi="http://sodipodi.sourceforge.net/DTD/sodipodi-0.dtd"
   xmlns:xlink="http://www.w3.org/1999/xlink"
   xmlns="http://www.w3.org/2000/svg"
   xmlns:svg="http://www.w3.org/2000/svg"
   xmlns:rdf="http://www.w3.org/1999/02/22-rdf-syntax-ns#"
   xmlns:cc="http://creativecommons.org/ns#"
   xmlns:dc="http://purl.org/dc/elements/1.1/">
  <sodipodi:namedview
     id="namedview3568"
     pagecolor="#ffffff"
     bordercolor="#000000"
     borderopacity="0.25"
     inkscape:showpageshadow="2"
     inkscape:pageopacity="0.0"
     inkscape:pagecheckerboard="0"
     inkscape:deskcolor="#d1d1d1"
     inkscape:document-units="pt"
     showgrid="false"
     inkscape:zoom="1.6969274"
     inkscape:cx="453.46666"
     inkscape:cy="403.08147"
     inkscape:window-width="1309"
     inkscape:window-height="456"
     inkscape:window-x="0"
     inkscape:window-y="38"
     inkscape:window-maximized="0"
     inkscape:current-layer="figure_1" />
  <metadata
     id="metadata3057">
    <rdf:RDF>
      <cc:Work>
        <dc:type
           rdf:resource="http://purl.org/dc/dcmitype/StillImage" />
        <dc:date>2022-06-19T15:47:20.398820</dc:date>
        <dc:format>image/svg+xml</dc:format>
        <dc:creator>
          <cc:Agent>
            <dc:title>Matplotlib v3.5.1, https://matplotlib.org/</dc:title>
          </cc:Agent>
        </dc:creator>
      </cc:Work>
    </rdf:RDF>
  </metadata>
  <defs
     id="defs3061">
    <style
       type="text/css"
       id="style3059">*{stroke-linejoin: round; stroke-linecap: butt}</style>
    <defs
       id="defs3540">
      <path
         id="DejaVuSans-45"
         d="M 628,4666 H 3578 V 4134 H 1259 V 2753 H 3481 V 2222 H 1259 V 531 H 3634 V 0 H 628 Z"
         transform="scale(0.015625)" />
      <path
         id="DejaVuSans-6e"
         d="M 3513,2113 V 0 h -575 v 2094 q 0,497 -194,743 -194,247 -581,247 -466,0 -735,-297 -269,-296 -269,-809 V 0 H 581 v 3500 h 578 v -544 q 207,316 486,472 280,156 646,156 603,0 912,-373 310,-373 310,-1098 z"
         transform="scale(0.015625)" />
      <path
         id="DejaVuSans-74"
         d="M 1172,4494 V 3500 H 2356 V 3053 H 1172 V 1153 q 0,-428 117,-550 117,-122 477,-122 h 590 V 0 H 1766 Q 1100,0 847,248 594,497 594,1153 V 3053 H 172 v 447 h 422 v 994 z"
         transform="scale(0.015625)" />
      <path
         id="DejaVuSans-72"
         d="m 2631,2963 q -97,56 -211,82 -114,27 -251,27 -488,0 -749,-317 -261,-317 -261,-911 V 0 H 581 v 3500 h 578 v -544 q 182,319 472,473 291,155 707,155 59,0 131,-8 72,-7 159,-23 z"
         transform="scale(0.015625)" />
      <path
         id="DejaVuSans-6f"
         d="m 1959,3097 q -462,0 -731,-361 -269,-361 -269,-989 0,-628 267,-989 268,-361 733,-361 460,0 728,362 269,363 269,988 0,622 -269,986 -268,364 -728,364 z m 0,487 q 750,0 1178,-488 429,-487 429,-1349 Q 3566,888 3137,398 2709,-91 1959,-91 1206,-91 779,398 353,888 353,1747 q 0,862 426,1349 427,488 1180,488 z"
         transform="scale(0.015625)" />
      <path
         id="DejaVuSans-70"
         d="M 1159,525 V -1331 H 581 v 4831 h 578 v -531 q 182,312 458,463 277,152 661,152 638,0 1036,-506 399,-506 399,-1331 0,-825 -399,-1332 -398,-506 -1036,-506 -384,0 -661,152 -276,152 -458,464 z m 1957,1222 q 0,634 -261,995 -261,361 -717,361 -457,0 -718,-361 -261,-361 -261,-995 0,-634 261,-995 261,-361 718,-361 456,0 717,361 261,361 261,995 z"
         transform="scale(0.015625)" />
      <path
         id="DejaVuSans-79"
         d="m 2059,-325 q -243,-625 -475,-815 -231,-191 -618,-191 H 506 v 481 h 338 q 237,0 368,113 132,112 291,531 L 1606,56 191,3500 H 800 L 1894,763 2988,3500 h 609 z"
         transform="scale(0.015625)" />
    </defs>
    <defs
       id="defs3070">
      <path
         id="m030c273921"
         d="M 0,0 V 3.5"
         style="stroke:#000000;stroke-width:0.8" />
    </defs>
    <defs
       id="defs3395">
      <path
         id="m6aa8b6b598"
         d="M 0,0 H -3.5"
         style="stroke:#000000;stroke-width:0.8" />
    </defs>
    <defs
       id="defs3096">
      <path
         id="DejaVuSans-41"
         d="M 2188,4044 1331,1722 h 1716 z m -357,622 h 716 L 4325,0 H 3669 L 3244,1197 H 1141 L 716,0 H 50 Z"
         transform="scale(0.015625)" />
    </defs>
    <defs
       id="defs3115">
      <path
         id="DejaVuSans-31"
         d="M 794,531 H 1825 V 4091 L 703,3866 v 575 l 1116,225 h 631 V 531 H 3481 V 0 H 794 Z"
         transform="scale(0.015625)" />
      <path
         id="DejaVuSans-32"
         d="M 1228,531 H 3431 V 0 H 469 v 531 q 359,372 979,998 621,627 780,809 303,340 423,576 121,236 121,464 0,372 -261,606 -261,235 -680,235 -297,0 -627,-103 -329,-103 -704,-313 v 638 q 381,153 712,231 332,78 607,78 725,0 1156,-363 431,-362 431,-968 0,-288 -108,-546 -107,-257 -392,-607 -78,-91 -497,-524 Q 1991,1309 1228,531 Z"
         transform="scale(0.015625)" />
      <path
         id="DejaVuSans-37"
         d="M 525,4666 H 3525 V 4397 L 1831,0 H 1172 L 2766,4134 H 525 Z"
         transform="scale(0.015625)" />
      <path
         id="DejaVuSans-35"
         d="M 691,4666 H 3169 V 4134 H 1269 V 2991 q 137,47 274,70 138,23 276,23 781,0 1237,-428 457,-428 457,-1159 Q 3513,744 3044,326 2575,-91 1722,-91 1428,-91 1123,-41 819,9 494,109 v 635 q 281,-153 581,-228 300,-75 634,-75 541,0 856,284 316,284 316,772 0,487 -316,771 -315,285 -856,285 -253,0 -505,-56 -251,-56 -513,-175 z"
         transform="scale(0.015625)" />
    </defs>
    <defs
       id="defs3270">
      <path
         id="DejaVuSans-36"
         d="m 2113,2584 q -425,0 -674,-291 -248,-290 -248,-796 0,-503 248,-796 249,-292 674,-292 425,0 673,292 248,293 248,796 0,506 -248,796 -248,291 -673,291 z m 1253,1979 v -575 q -238,112 -480,171 -242,60 -480,60 -625,0 -955,-422 -329,-422 -376,-1275 184,272 462,417 279,145 613,145 703,0 1111,-427 408,-426 408,-1160 0,-719 -425,-1154 -425,-434 -1131,-434 -810,0 -1238,620 -428,621 -428,1799 0,1106 525,1764 525,658 1409,658 238,0 480,-47 242,-47 505,-140 z"
         transform="scale(0.015625)" />
    </defs>
    <defs
       id="defs3081">
      <path
         id="DejaVuSans-38"
         d="m 2034,2216 q -450,0 -708,-241 -257,-241 -257,-662 0,-422 257,-663 258,-241 708,-241 450,0 709,242 260,243 260,662 0,421 -258,662 -257,241 -711,241 z m -631,268 q -406,100 -633,378 -226,279 -226,679 0,559 398,884 399,325 1092,325 697,0 1094,-325 397,-325 397,-884 0,-400 -227,-679 -226,-278 -629,-378 456,-106 710,-416 255,-309 255,-755 Q 3634,634 3220,271 2806,-91 2034,-91 1263,-91 848,271 434,634 434,1313 q 0,446 256,755 257,310 713,416 z m -231,997 q 0,-362 226,-565 227,-203 636,-203 407,0 636,203 230,203 230,565 0,363 -230,566 -229,203 -636,203 -409,0 -636,-203 -226,-203 -226,-566 z"
         transform="scale(0.015625)" />
      <path
         id="DejaVuSans-34"
         d="M 2419,4116 825,1625 h 1594 z m -166,550 h 794 V 1625 h 666 V 1100 H 3047 V 0 H 2419 V 1100 H 313 v 609 z"
         transform="scale(0.015625)" />
      <path
         id="DejaVuSans-30"
         d="m 2034,4250 q -487,0 -733,-480 -245,-479 -245,-1442 0,-959 245,-1439 246,-480 733,-480 491,0 736,480 246,480 246,1439 0,963 -246,1442 -245,480 -736,480 z m 0,500 q 785,0 1199,-621 414,-620 414,-1801 0,-1178 -414,-1799 -414,-620 -1199,-620 -784,0 -1198,620 -414,621 -414,1799 0,1181 414,1801 414,621 1198,621 z"
         transform="scale(0.015625)" />
      <path
         id="DejaVuSans-2e"
         d="m 684,794 h 660 V 0 H 684 Z"
         transform="scale(0.015625)" />
    </defs>
    <defs
       id="defs3340">
      <path
         id="DejaVuSans-39"
         d="m 703,97 v 575 q 238,-113 481,-172 244,-59 479,-59 625,0 954,420 330,420 377,1277 -181,-269 -460,-413 -278,-144 -615,-144 -700,0 -1108,423 -408,424 -408,1159 0,718 425,1152 425,435 1131,435 810,0 1236,-621 427,-620 427,-1801 Q 3622,1225 3098,567 2575,-91 1691,-91 1453,-91 1209,-44 966,3 703,97 Z m 1256,1978 q 425,0 673,290 249,291 249,798 0,503 -249,795 -248,292 -673,292 -425,0 -673,-292 -248,-292 -248,-795 0,-507 248,-798 248,-290 673,-290 z"
         transform="scale(0.015625)" />
    </defs>
    <defs
       id="defs3145">
      <path
         id="DejaVuSans-33"
         d="m 2597,2516 q 453,-97 707,-404 255,-306 255,-756 0,-690 -475,-1069 -475,-378 -1350,-378 -293,0 -604,58 -311,58 -642,174 v 609 q 262,-153 574,-231 313,-78 654,-78 593,0 904,234 311,234 311,681 0,413 -289,645 -289,233 -804,233 h -544 v 519 h 569 q 465,0 712,186 247,186 247,536 0,359 -255,551 -254,193 -729,193 -260,0 -557,-57 -297,-56 -653,-174 v 562 q 360,100 674,150 314,50 592,50 719,0 1137,-327 419,-326 419,-882 0,-388 -222,-655 -222,-267 -631,-370 z"
         transform="scale(0.015625)" />
    </defs>
  </defs>
  <g
     id="figure_1">
    <g
       id="patch_1">
      <path
         d="M 0 360  L 1080 360  L 1080 0  L 0 0  L 0 360  z "
         style="fill: none"
         id="path3063" />
    </g>
    <path
       d="M 135,315 H 972 V 43.2 H 135 Z"
       style="fill:#ffffff"
       id="path3066" />
    <use
       xlink:href="#m030c273921"
       x="238.59216"
       y="315"
       style="stroke:#000000;stroke-width:0.8"
       id="use3072" />
    <use
       xlink:href="#DejaVuSans-30"
       x="127.24609"
       id="use3087"
       transform="matrix(0.1,0,0,-0.1,218.2781,329.59844)" />
    <use
       xlink:href="#DejaVuSans-2e"
       x="190.86914"
       id="use3089"
       transform="matrix(0.1,0,0,-0.1,218.2781,329.59844)" />
    <use
       xlink:href="#DejaVuSans-30"
       x="222.65625"
       id="use3091"
       transform="matrix(0.1,0,0,-0.1,218.2781,329.59844)" />
    <use
       xlink:href="#DejaVuSans-41"
       id="use3098"
       transform="matrix(0.1,0,0,-0.1,231.9906,340.79625)" />
    <use
       xlink:href="#DejaVuSans-30"
       x="68.408203"
       id="use3100"
       transform="matrix(0.1,0,0,-0.1,231.9906,340.79625)" />
    <use
       xlink:href="#m030c273921"
       x="292.2381"
       y="315"
       style="stroke:#000000;stroke-width:0.8"
       id="use3106" />
    <use
       xlink:href="#DejaVuSans-31"
       id="use3117"
       transform="matrix(0.1,0,0,-0.1,274.74279,329.59844)" />
    <use
       xlink:href="#DejaVuSans-32"
       x="63.623047"
       id="use3119"
       transform="matrix(0.1,0,0,-0.1,274.74279,329.59844)" />
    <use
       xlink:href="#DejaVuSans-37"
       x="127.24609"
       id="use3121"
       transform="matrix(0.1,0,0,-0.1,274.74279,329.59844)" />
    <use
       xlink:href="#DejaVuSans-35"
       x="190.86914"
       id="use3123"
       transform="matrix(0.1,0,0,-0.1,274.74279,329.59844)" />
    <use
       xlink:href="#DejaVuSans-2e"
       x="254.49219"
       id="use3125"
       transform="matrix(0.1,0,0,-0.1,274.74279,329.59844)" />
    <use
       xlink:href="#DejaVuSans-30"
       x="286.2793"
       id="use3127"
       transform="matrix(0.1,0,0,-0.1,274.74279,329.59844)" />
    <use
       xlink:href="#DejaVuSans-41"
       id="use3131"
       transform="matrix(0.1,0,0,-0.1,285.63654,340.79625)" />
    <use
       xlink:href="#DejaVuSans-31"
       x="68.408203"
       id="use3133"
       transform="matrix(0.1,0,0,-0.1,285.63654,340.79625)" />
    <use
       xlink:href="#m030c273921"
       x="305.18713"
       y="315"
       style="stroke:#000000;stroke-width:0.8"
       id="use3139" />
    <use
       xlink:href="#DejaVuSans-31"
       id="use3147"
       transform="matrix(0.1,0,0,-0.1,287.69181,329.59844)" />
    <use
       xlink:href="#DejaVuSans-33"
       x="63.623047"
       id="use3149"
       transform="matrix(0.1,0,0,-0.1,287.69181,329.59844)" />
    <use
       xlink:href="#DejaVuSans-38"
       x="127.24609"
       id="use3151"
       transform="matrix(0.1,0,0,-0.1,287.69181,329.59844)" />
    <use
       xlink:href="#DejaVuSans-30"
       x="190.86914"
       id="use3153"
       transform="matrix(0.1,0,0,-0.1,287.69181,329.59844)" />
    <use
       xlink:href="#DejaVuSans-2e"
       x="254.49219"
       id="use3155"
       transform="matrix(0.1,0,0,-0.1,287.69181,329.59844)" />
    <use
       xlink:href="#DejaVuSans-30"
       x="286.2793"
       id="use3157"
       transform="matrix(0.1,0,0,-0.1,287.69181,329.59844)" />
    <use
       xlink:href="#DejaVuSans-41"
       id="use3161"
       transform="matrix(0.1,0,0,-0.1,298.58556,340.79625)" />
    <use
       xlink:href="#DejaVuSans-32"
       x="68.408203"
       id="use3163"
       transform="matrix(0.1,0,0,-0.1,298.58556,340.79625)" />
    <use
       xlink:href="#m030c273921"
       x="357.59982"
       y="315"
       style="stroke:#000000;stroke-width:0.8"
       id="use3169" />
    <use
       xlink:href="#DejaVuSans-31"
       id="use3174"
       transform="matrix(0.1,0,0,-0.1,340.10451,329.59844)" />
    <use
       xlink:href="#DejaVuSans-38"
       x="63.623047"
       id="use3176"
       transform="matrix(0.1,0,0,-0.1,340.10451,329.59844)" />
    <use
       xlink:href="#DejaVuSans-30"
       x="127.24609"
       id="use3178"
       transform="matrix(0.1,0,0,-0.1,340.10451,329.59844)" />
    <use
       xlink:href="#DejaVuSans-35"
       x="190.86914"
       id="use3180"
       transform="matrix(0.1,0,0,-0.1,340.10451,329.59844)" />
    <use
       xlink:href="#DejaVuSans-2e"
       x="254.49219"
       id="use3182"
       transform="matrix(0.1,0,0,-0.1,340.10451,329.59844)" />
    <use
       xlink:href="#DejaVuSans-30"
       x="286.2793"
       id="use3184"
       transform="matrix(0.1,0,0,-0.1,340.10451,329.59844)" />
    <use
       xlink:href="#DejaVuSans-41"
       id="use3188"
       transform="matrix(0.1,0,0,-0.1,350.99826,340.79625)" />
    <use
       xlink:href="#DejaVuSans-33"
       x="68.408203"
       id="use3190"
       transform="matrix(0.1,0,0,-0.1,350.99826,340.79625)" />
    <use
       xlink:href="#m030c273921"
       x="393.98041"
       y="315"
       style="stroke:#000000;stroke-width:0.8"
       id="use3196" />
    <use
       xlink:href="#DejaVuSans-32"
       id="use3201"
       transform="matrix(0.1,0,0,-0.1,376.48509,329.59844)" />
    <use
       xlink:href="#DejaVuSans-31"
       x="63.623047"
       id="use3203"
       transform="matrix(0.1,0,0,-0.1,376.48509,329.59844)" />
    <use
       xlink:href="#DejaVuSans-30"
       x="127.24609"
       id="use3205"
       transform="matrix(0.1,0,0,-0.1,376.48509,329.59844)" />
    <use
       xlink:href="#DejaVuSans-30"
       x="190.86914"
       id="use3207"
       transform="matrix(0.1,0,0,-0.1,376.48509,329.59844)" />
    <use
       xlink:href="#DejaVuSans-2e"
       x="254.49219"
       id="use3209"
       transform="matrix(0.1,0,0,-0.1,376.48509,329.59844)" />
    <use
       xlink:href="#DejaVuSans-30"
       x="286.2793"
       id="use3211"
       transform="matrix(0.1,0,0,-0.1,376.48509,329.59844)" />
    <use
       xlink:href="#DejaVuSans-41"
       id="use3215"
       transform="matrix(0.1,0,0,-0.1,387.37884,340.79625)" />
    <use
       xlink:href="#DejaVuSans-34"
       x="68.408203"
       id="use3217"
       transform="matrix(0.1,0,0,-0.1,387.37884,340.79625)" />
    <use
       xlink:href="#m030c273921"
       x="418.6452"
       y="315"
       style="stroke:#000000;stroke-width:0.8"
       id="use3223" />
    <use
       xlink:href="#DejaVuSans-32"
       id="use3228"
       transform="matrix(0.1,0,0,-0.1,401.14989,329.59844)" />
    <use
       xlink:href="#DejaVuSans-33"
       x="63.623047"
       id="use3230"
       transform="matrix(0.1,0,0,-0.1,401.14989,329.59844)" />
    <use
       xlink:href="#DejaVuSans-30"
       x="127.24609"
       id="use3232"
       transform="matrix(0.1,0,0,-0.1,401.14989,329.59844)" />
    <use
       xlink:href="#DejaVuSans-30"
       x="190.86914"
       id="use3234"
       transform="matrix(0.1,0,0,-0.1,401.14989,329.59844)" />
    <use
       xlink:href="#DejaVuSans-2e"
       x="254.49219"
       id="use3236"
       transform="matrix(0.1,0,0,-0.1,401.14989,329.59844)" />
    <use
       xlink:href="#DejaVuSans-30"
       x="286.2793"
       id="use3238"
       transform="matrix(0.1,0,0,-0.1,401.14989,329.59844)" />
    <use
       xlink:href="#DejaVuSans-41"
       id="use3242"
       transform="matrix(0.1,0,0,-0.1,412.04364,340.79625)" />
    <use
       xlink:href="#DejaVuSans-35"
       x="68.408203"
       id="use3244"
       transform="matrix(0.1,0,0,-0.1,412.04364,340.79625)" />
    <use
       xlink:href="#m030c273921"
       x="448.85959"
       y="315"
       style="stroke:#000000;stroke-width:0.8"
       id="use3250" />
    <use
       xlink:href="#DejaVuSans-32"
       id="use3255"
       transform="matrix(0.1,0,0,-0.1,431.36427,329.59844)" />
    <use
       xlink:href="#DejaVuSans-35"
       x="63.623047"
       id="use3257"
       transform="matrix(0.1,0,0,-0.1,431.36427,329.59844)" />
    <use
       xlink:href="#DejaVuSans-34"
       x="127.24609"
       id="use3259"
       transform="matrix(0.1,0,0,-0.1,431.36427,329.59844)" />
    <use
       xlink:href="#DejaVuSans-35"
       x="190.86914"
       id="use3261"
       transform="matrix(0.1,0,0,-0.1,431.36427,329.59844)" />
    <use
       xlink:href="#DejaVuSans-2e"
       x="254.49219"
       id="use3263"
       transform="matrix(0.1,0,0,-0.1,431.36427,329.59844)" />
    <use
       xlink:href="#DejaVuSans-30"
       x="286.2793"
       id="use3265"
       transform="matrix(0.1,0,0,-0.1,431.36427,329.59844)" />
    <use
       xlink:href="#DejaVuSans-41"
       id="use3272"
       transform="matrix(0.1,0,0,-0.1,442.25802,340.79625)" />
    <use
       xlink:href="#DejaVuSans-36"
       x="68.408203"
       id="use3274"
       transform="matrix(0.1,0,0,-0.1,442.25802,340.79625)" />
    <use
       xlink:href="#m030c273921"
       x="472.72278"
       y="315"
       style="stroke:#000000;stroke-width:0.8"
       id="use3280" />
    <use
       xlink:href="#DejaVuSans-32"
       id="use3285"
       transform="matrix(0.1,0,0,-0.1,455.22747,329.59844)" />
    <use
       xlink:href="#DejaVuSans-37"
       x="63.623047"
       id="use3287"
       transform="matrix(0.1,0,0,-0.1,455.22747,329.59844)" />
    <use
       xlink:href="#DejaVuSans-33"
       x="127.24609"
       id="use3289"
       transform="matrix(0.1,0,0,-0.1,455.22747,329.59844)" />
    <use
       xlink:href="#DejaVuSans-38"
       x="190.86914"
       id="use3291"
       transform="matrix(0.1,0,0,-0.1,455.22747,329.59844)" />
    <use
       xlink:href="#DejaVuSans-2e"
       x="254.49219"
       id="use3293"
       transform="matrix(0.1,0,0,-0.1,455.22747,329.59844)" />
    <use
       xlink:href="#DejaVuSans-30"
       x="286.2793"
       id="use3295"
       transform="matrix(0.1,0,0,-0.1,455.22747,329.59844)" />
    <use
       xlink:href="#DejaVuSans-41"
       id="use3299"
       transform="matrix(0.1,0,0,-0.1,466.12122,340.79625)" />
    <use
       xlink:href="#DejaVuSans-37"
       x="68.408203"
       id="use3301"
       transform="matrix(0.1,0,0,-0.1,466.12122,340.79625)" />
    <use
       xlink:href="#m030c273921"
       x="522.23737"
       y="315"
       style="stroke:#000000;stroke-width:0.8"
       id="use3307" />
    <use
       xlink:href="#DejaVuSans-33"
       id="use3312"
       transform="matrix(0.1,0,0,-0.1,504.74205,329.59844)" />
    <use
       xlink:href="#DejaVuSans-31"
       x="63.623047"
       id="use3314"
       transform="matrix(0.1,0,0,-0.1,504.74205,329.59844)" />
    <use
       xlink:href="#DejaVuSans-34"
       x="127.24609"
       id="use3316"
       transform="matrix(0.1,0,0,-0.1,504.74205,329.59844)" />
    <use
       xlink:href="#DejaVuSans-30"
       x="190.86914"
       id="use3318"
       transform="matrix(0.1,0,0,-0.1,504.74205,329.59844)" />
    <use
       xlink:href="#DejaVuSans-2e"
       x="254.49219"
       id="use3320"
       transform="matrix(0.1,0,0,-0.1,504.74205,329.59844)" />
    <use
       xlink:href="#DejaVuSans-30"
       x="286.2793"
       id="use3322"
       transform="matrix(0.1,0,0,-0.1,504.74205,329.59844)" />
    <use
       xlink:href="#DejaVuSans-41"
       id="use3326"
       transform="matrix(0.1,0,0,-0.1,515.6358,340.79625)" />
    <use
       xlink:href="#DejaVuSans-38"
       x="68.408203"
       id="use3328"
       transform="matrix(0.1,0,0,-0.1,515.6358,340.79625)" />
    <use
       xlink:href="#m030c273921"
       x="553.06836"
       y="315"
       style="stroke:#000000;stroke-width:0.8"
       id="use3334" />
    <use
       xlink:href="#m6aa8b6b598"
       x="135"
       y="315"
       style="stroke:#000000;stroke-width:0.8"
       id="use3397" />
    <use
       xlink:href="#DejaVuSans-30"
       id="use3402"
       transform="matrix(0.1,0,0,-0.1,112.09687,318.79922)" />
    <use
       xlink:href="#DejaVuSans-2e"
       x="63.623047"
       id="use3404"
       transform="matrix(0.1,0,0,-0.1,112.09687,318.79922)" />
    <use
       xlink:href="#DejaVuSans-30"
       x="95.410156"
       id="use3406"
       transform="matrix(0.1,0,0,-0.1,112.09687,318.79922)" />
    <use
       xlink:href="#m6aa8b6b598"
       x="135"
       y="265.58182"
       style="stroke:#000000;stroke-width:0.8"
       id="use3412" />
    <use
       xlink:href="#DejaVuSans-30"
       id="use3417"
       transform="matrix(0.1,0,0,-0.1,112.09687,269.38104)" />
    <use
       xlink:href="#DejaVuSans-2e"
       x="63.623047"
       id="use3419"
       transform="matrix(0.1,0,0,-0.1,112.09687,269.38104)" />
    <use
       xlink:href="#DejaVuSans-32"
       x="95.410156"
       id="use3421"
       transform="matrix(0.1,0,0,-0.1,112.09687,269.38104)" />
    <use
       xlink:href="#m6aa8b6b598"
       x="135"
       y="216.16364"
       style="stroke:#000000;stroke-width:0.8"
       id="use3427" />
    <use
       xlink:href="#DejaVuSans-30"
       id="use3432"
       transform="matrix(0.1,0,0,-0.1,112.09687,219.96285)" />
    <use
       xlink:href="#DejaVuSans-2e"
       x="63.623047"
       id="use3434"
       transform="matrix(0.1,0,0,-0.1,112.09687,219.96285)" />
    <use
       xlink:href="#DejaVuSans-34"
       x="95.410156"
       id="use3436"
       transform="matrix(0.1,0,0,-0.1,112.09687,219.96285)" />
    <use
       xlink:href="#m6aa8b6b598"
       x="135"
       y="166.74545"
       style="stroke:#000000;stroke-width:0.8"
       id="use3442" />
    <use
       xlink:href="#DejaVuSans-30"
       id="use3447"
       transform="matrix(0.1,0,0,-0.1,112.09687,170.54467)" />
    <use
       xlink:href="#DejaVuSans-2e"
       x="63.623047"
       id="use3449"
       transform="matrix(0.1,0,0,-0.1,112.09687,170.54467)" />
    <use
       xlink:href="#DejaVuSans-36"
       x="95.410156"
       id="use3451"
       transform="matrix(0.1,0,0,-0.1,112.09687,170.54467)" />
    <use
       xlink:href="#m6aa8b6b598"
       x="135"
       y="117.32727"
       style="stroke:#000000;stroke-width:0.8"
       id="use3457" />
    <use
       xlink:href="#DejaVuSans-30"
       id="use3462"
       transform="matrix(0.1,0,0,-0.1,112.09687,121.12649)" />
    <use
       xlink:href="#DejaVuSans-2e"
       x="63.623047"
       id="use3464"
       transform="matrix(0.1,0,0,-0.1,112.09687,121.12649)" />
    <use
       xlink:href="#DejaVuSans-38"
       x="95.410156"
       id="use3466"
       transform="matrix(0.1,0,0,-0.1,112.09687,121.12649)" />
    <use
       xlink:href="#m6aa8b6b598"
       x="135"
       y="67.909088"
       style="stroke:#000000;stroke-width:0.8"
       id="use3472" />
    <use
       xlink:href="#DejaVuSans-31"
       id="use3477"
       transform="matrix(0.1,0,0,-0.1,112.09687,71.70831)" />
    <use
       xlink:href="#DejaVuSans-2e"
       x="63.623047"
       id="use3479"
       transform="matrix(0.1,0,0,-0.1,112.09687,71.70831)" />
    <use
       xlink:href="#DejaVuSans-30"
       x="95.410156"
       id="use3481"
       transform="matrix(0.1,0,0,-0.1,112.09687,71.70831)" />
    <path
       d="M 239.12651,318.03281 238.59216,67.909091 292.2381,315"
       clip-path="url(#pb092fbc605)"
       style="fill:none;stroke:#1f77b4;stroke-width:1.5;stroke-linecap:square"
       id="path3488"
       sodipodi:nodetypes="ccc" />
    <path
       d="M 238.59216,315 292.2381,67.909091 305.18712,315"
       clip-path="url(#pb092fbc605)"
       style="fill:none;stroke:#ff7f0e;stroke-width:1.5;stroke-linecap:square"
       id="path3491" />
    <path
       d="M 292.2381,315 305.18712,67.909091 357.59982,315"
       clip-path="url(#pb092fbc605)"
       style="fill:none;stroke:#2ca02c;stroke-width:1.5;stroke-linecap:square"
       id="path3494" />
    <path
       d="M 305.18712,315 357.59982,67.909091 393.9804,315"
       clip-path="url(#pb092fbc605)"
       style="fill:none;stroke:#d62728;stroke-width:1.5;stroke-linecap:square"
       id="path3497" />
    <path
       d="M 357.59982,315 393.9804,67.909091 418.6452,315"
       clip-path="url(#pb092fbc605)"
       style="fill:none;stroke:#9467bd;stroke-width:1.5;stroke-linecap:square"
       id="path3500" />
    <path
       d="M 393.9804,315 418.6452,67.909091 448.85958,315"
       clip-path="url(#pb092fbc605)"
       style="fill:none;stroke:#8c564b;stroke-width:1.5;stroke-linecap:square"
       id="path3503" />
    <path
       d="M 418.6452,315 448.85958,67.909091 472.72278,315"
       clip-path="url(#pb092fbc605)"
       style="fill:none;stroke:#e377c2;stroke-width:1.5;stroke-linecap:square"
       id="path3506" />
    <path
       d="M 448.85958,315 472.72278,67.909091 522.23737,315"
       clip-path="url(#pb092fbc605)"
       style="fill:none;stroke:#7f7f7f;stroke-width:1.5;stroke-linecap:square"
       id="path3509" />
    <path
       d="M 472.72278,315 522.23737,67.909091 553.06837,315"
       clip-path="url(#pb092fbc605)"
       style="fill:none;stroke:#bcbd22;stroke-width:1.5;stroke-linecap:square"
       id="path3512" />
    <path
       d="m 522.23737,315 30.831,-247.090909 0.69089,248.101849"
       clip-path="url(#pb092fbc605)"
       style="fill:none;stroke:#17becf;stroke-width:1.5;stroke-linecap:square"
       id="path3515"
       sodipodi:nodetypes="ccc" />
    <path
       d="M 135,315 V 43.2"
       style="fill:none;stroke:#000000;stroke-width:0.8;stroke-linecap:square;stroke-linejoin:miter"
       id="path3521" />
    <path
       d="M 972,315 V 43.2"
       style="fill:none;stroke:#000000;stroke-width:0.8;stroke-linecap:square;stroke-linejoin:miter"
       id="path3524" />
    <path
       d="M 135,315 H 972"
       style="fill:none;stroke:#000000;stroke-width:0.8;stroke-linecap:square;stroke-linejoin:miter"
       id="path3527" />
    <path
       d="M 135,43.2 H 972"
       style="fill:none;stroke:#000000;stroke-width:0.8;stroke-linecap:square;stroke-linejoin:miter"
       id="path3530" />
    <use
       xlink:href="#DejaVuSans-45"
       id="use3542"
       transform="matrix(0.12,0,0,-0.12,530.19094,37.2)" />
    <use
       xlink:href="#DejaVuSans-6e"
       x="63.183594"
       id="use3544"
       transform="matrix(0.12,0,0,-0.12,530.19094,37.2)" />
    <use
       xlink:href="#DejaVuSans-74"
       x="126.5625"
       id="use3546"
       transform="matrix(0.12,0,0,-0.12,530.19094,37.2)" />
    <use
       xlink:href="#DejaVuSans-72"
       x="165.77148"
       id="use3548"
       transform="matrix(0.12,0,0,-0.12,530.19094,37.2)" />
    <use
       xlink:href="#DejaVuSans-6f"
       x="204.63477"
       id="use3550"
       transform="matrix(0.12,0,0,-0.12,530.19094,37.2)" />
    <use
       xlink:href="#DejaVuSans-70"
       x="265.81641"
       id="use3552"
       transform="matrix(0.12,0,0,-0.12,530.19094,37.2)" />
    <use
       xlink:href="#DejaVuSans-79"
       x="329.29297"
       id="use3554"
       transform="matrix(0.12,0,0,-0.12,530.19094,37.2)" />
    <use
       xlink:href="#DejaVuSans-37"
       x="63.623047"
       id="use776-2"
       transform="matrix(0.1,0,0,-0.1,541.45207,329.77431)"
       style="stroke-linecap:butt;stroke-linejoin:round" />
    <use
       xlink:href="#DejaVuSans-36"
       id="use831"
       transform="matrix(0.1,0,0,-0.1,535.17881,329.76884)"
       style="stroke-linecap:butt;stroke-linejoin:round" />
    <use
       xlink:href="#DejaVuSans-31"
       x="63.623047"
       id="use833"
       transform="matrix(0.1,0,0,-0.1,535.17881,329.77431)"
       style="stroke-linecap:butt;stroke-linejoin:round" />
    <use
       xlink:href="#DejaVuSans-2e"
       x="254.49219"
       id="use839"
       transform="matrix(0.1,0,0,-0.1,535.17881,329.74931)"
       style="stroke-linecap:butt;stroke-linejoin:round" />
    <use
       xlink:href="#DejaVuSans-30"
       x="286.2793"
       id="use841"
       transform="matrix(0.1,0,0,-0.1,535.17881,329.76884)"
       style="stroke-linecap:butt;stroke-linejoin:round" />
    <use
       xlink:href="#DejaVuSans-30"
       x="286.2793"
       id="use841-2"
       transform="matrix(0.1,0,0,-0.1,525.35992,329.76884)"
       style="stroke-linecap:butt;stroke-linejoin:round" />
    <use
       xlink:href="#DejaVuSans-41"
       id="use845"
       transform="matrix(0.1,0,0,-0.1,546.07257,341.06032)"
       style="stroke-linecap:butt;stroke-linejoin:round" />
    <use
       xlink:href="#DejaVuSans-39"
       x="68.408203"
       id="use847"
       transform="matrix(0.1,0,0,-0.1,546.07257,341.06032)"
       style="stroke-linecap:butt;stroke-linejoin:round" />
  </g>
  <defs
     id="defs3564">
    <clipPath
       id="pb092fbc605">
      <rect
         x="135"
         y="43.2"
         width="837"
         height="271.8"
         id="rect3561" />
    </clipPath>
  </defs>
</svg>
